<svg width="66" height="65" viewBox="0 0 66 65" fill="none" xmlns="http://www.w3.org/2000/svg">
<rect width="66" height="65" rx="32.5" fill="url(#paint0_linear_43_127)"/>
<path d="M49.5832 32.5H45.3465C44.5999 32.4984 43.8733 32.7414 43.2779 33.1918C42.6825 33.6422 42.251 34.2753 42.0494 34.9942L38.0348 49.2758C38.009 49.3645 37.955 49.4425 37.8811 49.4979C37.8072 49.5534 37.7172 49.5833 37.6248 49.5833C37.5324 49.5833 37.4425 49.5534 37.3686 49.4979C37.2947 49.4425 37.2407 49.3645 37.2148 49.2758L27.7848 15.7242C27.759 15.6355 27.705 15.5575 27.6311 15.5021C27.5572 15.4466 27.4672 15.4167 27.3748 15.4167C27.2824 15.4167 27.1925 15.4466 27.1186 15.5021C27.0447 15.5575 26.9907 15.6355 26.9648 15.7242L22.9503 30.0058C22.7495 30.7219 22.3205 31.3529 21.7286 31.803C21.1366 32.2532 20.4139 32.4979 19.6703 32.5H15.4165" stroke="#DCE8F3" stroke-width="2" stroke-linecap="round" stroke-linejoin="round"/>
<defs>
<linearGradient id="paint0_linear_43_127" x1="33" y1="0" x2="33" y2="65" gradientUnits="userSpaceOnUse">
<stop stop-color="#5A3CDD"/>
<stop offset="1" stop-color="#1D0F71"/>
</linearGradient>
</defs>
</svg>
