<svg width="66" height="65" viewBox="0 0 66 65" fill="none" xmlns="http://www.w3.org/2000/svg">
<rect width="66" height="65" rx="32.5" fill="url(#paint0_linear_43_117)"/>
<path d="M15.4165 32.5C15.4165 30.1368 15.8652 27.916 16.7627 25.8375C17.6601 23.759 18.877 21.951 20.4134 20.4135C21.9497 18.876 23.7577 17.6591 25.8373 16.7628C27.9169 15.8665 30.1378 15.4178 32.4998 15.4167C36.1158 15.4167 39.3406 16.4132 42.1741 18.4063C45.0077 20.3993 47.0645 22.976 48.3446 26.1365C48.5439 26.6205 48.5513 27.1045 48.3668 27.5885C48.1823 28.0726 47.8475 28.4 47.3623 28.5708C46.9068 28.7132 46.4729 28.6705 46.0606 28.4427C45.6483 28.2149 45.3562 27.8733 45.1842 27.4177C44.5009 25.7094 43.5186 24.2003 42.2373 22.8906C40.9561 21.5809 39.4186 20.5701 37.6248 19.8583V20.5417C37.6248 21.4813 37.2906 22.2859 36.622 22.9555C35.9535 23.6252 35.1489 23.9595 34.2082 23.9583H30.7915V27.375C30.7915 27.859 30.6275 28.265 30.2995 28.593C29.9715 28.921 29.5661 29.0845 29.0832 29.0833H25.6665V32.5H27.3748C27.8589 32.5 28.2649 32.664 28.5929 32.992C28.9209 33.32 29.0843 33.7254 29.0832 34.2083V37.625H27.3748L19.1748 29.425C19.0894 29.9375 19.0114 30.45 18.9408 30.9625C18.8702 31.475 18.8343 31.9875 18.8332 32.5C18.8332 35.9736 19.9795 39.0059 22.272 41.5969C24.5646 44.1878 27.4472 45.6826 30.9196 46.0813C31.3752 46.1382 31.7527 46.3307 32.0523 46.6587C32.3518 46.9867 32.501 47.3921 32.4998 47.875C32.4987 48.3579 32.3347 48.7639 32.0078 49.093C31.681 49.4222 31.2898 49.5571 30.8342 49.4979C26.478 49.0708 22.8193 47.2486 19.8582 44.0312C16.8971 40.8139 15.4165 36.9701 15.4165 32.5ZM46.8498 47.5333L42.579 43.2625C41.9811 43.6042 41.3405 43.8889 40.6571 44.1167C39.9738 44.3444 39.2478 44.4583 38.479 44.4583C36.3436 44.4583 34.5288 43.7112 33.0345 42.217C31.5403 40.7228 30.7926 38.9074 30.7915 36.7708C30.7904 34.6343 31.538 32.8195 33.0345 31.3264C34.531 29.8333 36.3459 29.0856 38.479 29.0833C40.6121 29.0811 42.4275 29.8287 43.9252 31.3264C45.4228 32.824 46.1699 34.6388 46.1665 36.7708C46.1665 37.5396 46.0526 38.2656 45.8248 38.949C45.5971 39.6323 45.3123 40.2729 44.9707 40.8708L49.2415 45.1417C49.5547 45.4549 49.7113 45.8535 49.7113 46.3375C49.7113 46.8215 49.5547 47.2201 49.2415 47.5333C48.9283 47.8465 48.5297 48.0031 48.0457 48.0031C47.5616 48.0031 47.163 47.8465 46.8498 47.5333ZM41.5113 39.8031C42.337 38.9774 42.7498 37.9667 42.7498 36.7708C42.7498 35.575 42.337 34.5642 41.5113 33.7385C40.6856 32.9128 39.6748 32.5 38.479 32.5C37.2832 32.5 36.2724 32.9128 35.4467 33.7385C34.621 34.5642 34.2082 35.575 34.2082 36.7708C34.2082 37.9667 34.621 38.9774 35.4467 39.8031C36.2724 40.6288 37.2832 41.0417 38.479 41.0417C39.6748 41.0417 40.6856 40.6288 41.5113 39.8031Z" fill="#DCE8F3"/>
<defs>
<linearGradient id="paint0_linear_43_117" x1="33" y1="0" x2="33" y2="65" gradientUnits="userSpaceOnUse">
<stop stop-color="#5A3CDD"/>
<stop offset="1" stop-color="#1D0F71"/>
</linearGradient>
</defs>
</svg>
