<svg width="399" height="399" viewBox="0 0 399 399" fill="none" xmlns="http://www.w3.org/2000/svg">
<path d="M372.579 252.327H241.795V176.645H372.579V252.327ZM242.593 251.529H371.781V177.443H242.593V251.529Z" fill="#E0E0E0"/>
<path d="M345.598 217H259.311V219.53H345.598V217Z" fill="#F0F0F0"/>
<path d="M351.543 226.432H259.311V229.193H351.543V226.432Z" fill="#F0F0F0"/>
<path d="M351.543 235.977H259.311V238.738H351.543V235.977Z" fill="#F0F0F0"/>
<path d="M289.467 203.298H259.311V209.866H289.467V203.298Z" fill="#F0F0F0"/>
<path d="M372.18 177.044H242.218V189.094H372.18V177.044Z" fill="#E0E0E0"/>
<path d="M362.18 187.29C362.013 187.131 363.689 185.112 365.915 182.782C368.142 180.452 370.097 178.688 370.256 178.84C370.416 178.991 368.748 181.018 366.522 183.356C364.295 185.694 362.34 187.45 362.18 187.29Z" fill="white"/>
<path d="M370.273 187.29C370.113 187.45 368.166 185.694 365.932 183.356C363.697 181.018 362.03 178.999 362.197 178.84C362.365 178.68 364.304 180.436 366.538 182.782C368.773 185.128 370.425 187.131 370.273 187.29Z" fill="white"/>
<path d="M211.646 27.1719H81.6836V102.064H211.646V27.1719Z" fill="#E6E6E6"/>
<path d="M185.073 67.1357H98.7852V69.6654H185.073V67.1357Z" fill="#F0F0F0"/>
<path d="M191.018 76.5679H98.7852V79.329H191.018V76.5679Z" fill="#F0F0F0"/>
<path d="M191.018 86.1118H98.7852V88.8729H191.018V86.1118Z" fill="#F0F0F0"/>
<path d="M128.942 53.4341H98.7852V60.0016H128.942V53.4341Z" fill="#F0F0F0"/>
<path d="M211.646 27.1719H81.6836V39.2217H211.646V27.1719Z" fill="#E0E0E0"/>
<path d="M201.208 37.3621C201.04 37.2104 202.716 35.1835 204.942 32.8533C207.169 30.5232 209.124 28.7596 209.284 28.9192C209.443 29.0788 207.775 31.0978 205.549 33.4279C203.323 35.7581 201.367 37.5057 201.208 37.3621Z" fill="white"/>
<path d="M209.284 37.3621C209.124 37.5217 207.177 35.7661 204.943 33.428C202.708 31.0898 201.04 29.0789 201.208 28.9193C201.375 28.7597 203.315 30.5153 205.549 32.8534C207.783 35.1915 209.451 37.2105 209.284 37.3621Z" fill="white"/>
<path d="M162.425 166.295H31.665V90.605H162.425V166.295ZM32.463 165.497H161.627V91.403H32.463V165.497Z" fill="#E0E0E0"/>
<path d="M135.453 130.967H49.165V133.497H135.453V130.967Z" fill="#F0F0F0"/>
<path d="M141.398 140.4H49.165V143.161H141.398V140.4Z" fill="#F0F0F0"/>
<path d="M141.398 149.944H49.165V152.705H141.398V149.944Z" fill="#F0F0F0"/>
<path d="M79.3215 117.266H49.165V123.833H79.3215V117.266Z" fill="#F0F0F0"/>
<path d="M162.027 91.0039H32.0645V103.054H162.027V91.0039Z" fill="#E0E0E0"/>
<path d="M313.335 183.635H159.88V321.019H313.335V183.635Z" fill="#E6E6E6"/>
<path d="M167.596 140.36H47.3857V265.255H167.596V140.36Z" fill="#F0F0F0"/>
<path d="M167.596 140.36H47.3857V153.966H167.596V140.36Z" fill="#E0E0E0"/>
<path d="M57.3124 147.024C57.2905 147.517 57.1242 147.993 56.8342 148.393C56.5441 148.792 56.1431 149.098 55.6808 149.272C55.2185 149.446 54.7154 149.48 54.2338 149.371C53.7522 149.261 53.3134 149.013 52.9719 148.656C52.6303 148.299 52.401 147.85 52.3124 147.364C52.2238 146.878 52.2798 146.377 52.4735 145.923C52.6673 145.468 52.9901 145.081 53.402 144.809C53.8139 144.536 54.2968 144.391 54.7907 144.39C55.4737 144.407 56.1222 144.693 56.5947 145.187C57.0672 145.68 57.3252 146.34 57.3124 147.024Z" fill="white"/>
<path d="M67.5513 147.024C67.531 147.519 67.3653 147.998 67.0749 148.4C66.7845 148.803 66.3822 149.111 65.9181 149.286C65.454 149.461 64.9486 149.497 64.4647 149.387C63.9808 149.277 63.5399 149.028 63.1967 148.669C62.8536 148.311 62.6234 147.86 62.5348 147.371C62.4462 146.883 62.5031 146.38 62.6985 145.924C62.8938 145.468 63.219 145.079 63.6335 144.806C64.048 144.534 64.5335 144.389 65.0297 144.39C65.7126 144.407 66.3612 144.693 66.8337 145.187C67.3062 145.68 67.5642 146.34 67.5513 147.024Z" fill="white"/>
<path d="M77.7896 147.024C77.7693 147.519 77.6036 147.998 77.3132 148.4C77.0228 148.803 76.6205 149.111 76.1564 149.286C75.6923 149.461 75.1869 149.497 74.703 149.387C74.2191 149.277 73.7782 149.028 73.435 148.669C73.0919 148.311 72.8617 147.86 72.7731 147.371C72.6845 146.883 72.7414 146.38 72.9368 145.924C73.1321 145.468 73.4573 145.079 73.8718 144.806C74.2863 144.534 74.7718 144.389 75.2679 144.39C75.9509 144.407 76.5995 144.693 77.072 145.187C77.5445 145.68 77.8025 146.34 77.7896 147.024Z" fill="white"/>
<path d="M355.413 54.4873H201.958V207.432H355.413V54.4873Z" fill="#F0F0F0"/>
<path d="M355.413 54.4873H201.958V72.4024H355.413V54.4873Z" fill="#E0E0E0"/>
<path d="M215.029 63.2652C215.001 63.9165 214.782 64.5452 214.4 65.0732C214.018 65.6012 213.489 66.0053 212.879 66.2353C212.269 66.4653 211.604 66.511 210.969 66.3669C210.333 66.2227 209.754 65.895 209.302 65.4244C208.851 64.9538 208.548 64.3611 208.431 63.7198C208.314 63.0785 208.388 62.4169 208.643 61.8172C208.899 61.2175 209.325 60.706 209.869 60.3463C210.412 59.9866 211.05 59.7946 211.702 59.7939C212.602 59.8149 213.458 60.1919 214.082 60.8425C214.706 61.4931 215.046 62.3642 215.029 63.2652Z" fill="white"/>
<path d="M227.534 60.9194C227.977 61.3998 228.268 61.9998 228.372 62.6446C228.476 63.2894 228.387 63.9505 228.118 64.5455C227.849 65.1405 227.41 65.6431 226.858 65.9907C226.305 66.3383 225.662 66.5155 225.009 66.5003C224.356 66.4851 223.722 66.278 223.186 65.905C222.65 65.532 222.235 65.0095 221.994 64.4026C221.753 63.7957 221.696 63.1312 221.829 62.492C221.963 61.8527 222.282 61.267 222.746 60.8077C223.397 60.1888 224.266 59.853 225.163 59.874C226.061 59.8949 226.914 60.2709 227.534 60.9194Z" fill="white"/>
<path d="M241.986 63.2652C241.958 63.9165 241.739 64.5452 241.357 65.0732C240.975 65.6012 240.446 66.0053 239.836 66.2353C239.226 66.4653 238.562 66.511 237.926 66.3669C237.29 66.2227 236.711 65.895 236.259 65.4244C235.808 64.9538 235.505 64.3611 235.388 63.7198C235.271 63.0785 235.345 62.4169 235.6 61.8172C235.856 61.2175 236.282 60.706 236.826 60.3463C237.369 59.9866 238.007 59.7946 238.659 59.7939C239.56 59.8149 240.416 60.1919 241.039 60.8425C241.663 61.4931 242.003 62.3642 241.986 63.2652Z" fill="white"/>
<path d="M268.271 263.907C255.942 255.296 253.149 239.312 253.636 224.94C253.716 222.546 253.452 220.009 254.593 217.91C255.735 215.811 258.4 214.367 260.547 215.372C262.326 216.21 263.1 218.285 264.098 220.001C265.429 222.286 267.379 224.148 269.724 225.371C271.248 226.169 273.139 226.648 274.647 225.818C276.722 224.677 276.961 221.828 276.945 219.434C276.945 214.981 276.919 210.534 276.866 206.091C276.722 203.706 276.965 201.313 277.584 199.005C278.326 196.739 279.978 194.64 282.236 194.002C284.495 193.363 287.311 194.68 287.822 197.01C287.91 197.997 287.934 198.989 287.894 199.979C287.958 200.976 288.421 202.07 289.354 202.373C290.288 202.676 291.262 201.982 291.98 201.279C294.438 198.885 296.113 195.765 297.669 192.685C299.226 189.605 300.75 186.437 302.984 183.811C305.219 181.186 308.307 179.103 311.762 178.904C315.218 178.704 318.817 180.827 319.678 184.178C320.54 187.53 318.585 190.953 316.486 193.675C313.319 197.714 309.586 201.275 305.402 204.248C304.585 204.694 303.934 205.391 303.543 206.235C303.024 207.831 304.532 209.427 306.104 209.93C307.884 210.52 309.815 210.337 311.69 210.56C313.566 210.784 315.561 211.598 316.271 213.353C317.244 215.795 315.202 218.349 313.199 220.025C309.177 223.376 304.61 226.013 299.696 227.821C297.941 228.459 296.097 229.026 294.677 230.255C293.257 231.484 292.411 233.63 293.265 235.314C294.118 236.998 296.313 237.533 298.156 237.189C300 236.846 301.636 235.857 303.391 235.194C306.671 233.958 310.9 234.181 312.967 237.014C313.607 237.99 314.013 239.101 314.151 240.26C314.29 241.419 314.158 242.594 313.765 243.693C312.966 245.881 311.737 247.886 310.15 249.59C304.924 255.835 298.133 260.58 290.472 263.34C282.867 265.973 275.82 266.692 268.263 263.922" fill="#1682E7"/>
<path d="M316.167 180.875C316.167 180.875 316.095 180.955 315.936 181.098L315.226 181.729C314.603 182.287 313.685 183.101 312.528 184.179C309.248 187.225 306.201 190.514 303.415 194.018C301.636 196.229 299.792 198.734 297.829 201.455C295.866 204.177 293.839 207.113 291.828 210.233C289.684 213.524 287.721 216.928 285.947 220.432C285.021 222.259 284.207 224.167 283.369 226.114L280.896 232.059C277.635 239.547 274.795 247.212 272.389 255.017C270.451 261.403 269.115 267.957 268.399 274.592C267.935 279.07 267.86 283.58 268.175 288.07C268.303 289.666 268.423 290.887 268.535 291.717C268.582 292.116 268.614 292.435 268.646 292.667V292.994C268.612 292.89 268.588 292.783 268.574 292.675C268.535 292.443 268.487 292.132 268.423 291.733C268.279 290.935 268.128 289.674 267.984 288.078C267.599 283.579 267.626 279.054 268.064 274.56C268.736 267.897 270.042 261.313 271.966 254.897C274.352 247.07 277.184 239.386 280.449 231.883L282.986 225.962C283.824 224.023 284.646 222.1 285.58 220.264C287.366 216.75 289.346 213.337 291.509 210.042C293.552 206.85 295.611 203.961 297.55 201.264C299.489 198.567 301.364 196.045 303.136 193.843C305.95 190.348 309.038 187.082 312.369 184.075C313.55 183.014 314.491 182.216 315.13 181.681L315.872 181.082C315.963 181.003 316.062 180.934 316.167 180.875Z" fill="#263238"/>
<path d="M285.683 220.248C285.571 219.919 285.493 219.579 285.452 219.234C285.324 218.572 285.181 217.638 285.013 216.425C284.67 214.031 284.319 210.751 283.944 207.121C283.569 203.49 283.146 200.202 282.795 197.832C282.611 196.651 282.451 195.701 282.34 195.039C282.253 194.7 282.207 194.351 282.204 194.001C282.342 194.321 282.441 194.656 282.499 194.999C282.675 195.653 282.874 196.595 283.098 197.784C283.553 200.178 284 203.434 284.375 207.073C284.75 210.712 285.069 213.904 285.316 216.385C285.436 217.503 285.54 218.452 285.62 219.21C285.682 219.552 285.703 219.901 285.683 220.248Z" fill="#263238"/>
<path d="M316.39 214.518C316.002 214.603 315.606 214.651 315.209 214.662C314.411 214.734 313.278 214.83 311.874 214.989C309.065 215.292 305.202 215.851 300.965 216.649C296.728 217.447 292.921 218.349 290.184 219.043C288.819 219.394 287.718 219.713 286.992 219.929C286.604 220.067 286.203 220.163 285.795 220.216C286.164 220.031 286.548 219.878 286.944 219.761C287.694 219.498 288.779 219.131 290.136 218.74C292.857 217.942 296.664 216.992 300.917 216.178C304.52 215.489 308.156 214.983 311.81 214.662C313.222 214.542 314.363 214.494 315.161 214.478C315.571 214.451 315.983 214.464 316.39 214.518Z" fill="#263238"/>
<path d="M272.357 254.339C272.272 254.223 272.202 254.097 272.15 253.963L271.623 252.854C271.168 251.889 270.554 250.46 269.82 248.713C268.335 245.201 266.444 240.286 264.433 234.827C262.422 229.369 260.571 224.453 259.166 220.902C258.48 219.179 257.914 217.766 257.491 216.713L257.044 215.572C256.982 215.44 256.939 215.3 256.916 215.157C257.001 215.272 257.071 215.398 257.123 215.532L257.65 216.641C258.097 217.607 258.719 219.035 259.454 220.783C260.938 224.294 262.829 229.21 264.84 234.668C266.851 240.126 268.702 245.042 270.107 248.593C270.793 250.317 271.36 251.729 271.775 252.782C271.958 253.237 272.11 253.58 272.23 253.924C272.292 254.055 272.335 254.195 272.357 254.339Z" fill="#263238"/>
<path d="M313.118 241.195C312.991 241.269 312.854 241.325 312.711 241.363L311.53 241.762L307.165 243.174C303.479 244.371 298.387 246.079 292.801 247.962C287.215 249.846 282.1 251.521 278.389 252.639C276.538 253.205 275.03 253.636 273.985 253.923L272.78 254.235C272.639 254.279 272.495 254.309 272.349 254.322C272.476 254.249 272.613 254.193 272.756 254.155L273.937 253.756L278.302 252.343C281.988 251.146 287.08 249.439 292.666 247.555C298.252 245.672 303.359 243.996 307.07 242.879C308.929 242.313 310.429 241.882 311.483 241.594L312.688 241.283C312.828 241.239 312.972 241.209 313.118 241.195Z" fill="#263238"/>
<path d="M296.489 47.6244L292.379 49.0928L290.615 43.7222C287.375 33.8191 277.049 28.5602 267.561 31.9039C258.073 35.2475 253.022 46.1083 256.261 56.0114L258.025 61.382L253.899 62.8583C252.326 63.4685 251.049 64.6614 250.332 66.1892C249.616 67.717 249.516 69.4621 250.053 71.0617L261.488 106.006C261.726 106.798 262.12 107.534 262.647 108.171C263.175 108.807 263.825 109.331 264.559 109.712C265.293 110.092 266.096 110.321 266.92 110.385C267.744 110.449 268.573 110.347 269.357 110.084L311.946 94.8501C313.54 94.241 314.836 93.0374 315.56 91.4926C316.285 89.9478 316.383 88.1821 315.832 86.5668L304.389 51.6224C304.145 50.8328 303.745 50.1003 303.212 49.4686C302.68 48.837 302.025 48.3191 301.288 47.946C300.55 47.5729 299.745 47.3521 298.921 47.2969C298.096 47.2416 297.269 47.353 296.489 47.6244ZM264.026 53.2104C263.152 50.6355 263.309 47.8223 264.464 45.3604C265.618 42.8985 267.68 40.9788 270.218 40.0036C271.472 39.5747 272.799 39.4028 274.12 39.4979C275.441 39.5931 276.73 39.9534 277.909 40.5574C279.088 41.1614 280.133 41.9967 280.982 43.0135C281.831 44.0302 282.467 45.2076 282.851 46.4753L284.606 51.8459L265.782 58.581L264.026 53.2104ZM287.966 84.2207L290.887 93.1424C290.94 93.3213 290.923 93.5139 290.838 93.6804C290.754 93.8468 290.608 93.9742 290.432 94.0361L286.338 95.4965C286.175 95.5416 286.001 95.522 285.852 95.4417C285.704 95.3613 285.592 95.2265 285.54 95.0655L282.595 86.1838C280.972 86.0953 279.414 85.513 278.13 84.5147C276.847 83.5163 275.899 82.1497 275.413 80.5978C274.719 78.5461 274.846 76.3054 275.767 74.345C276.688 72.3845 278.331 70.8562 280.353 70.0802C281.352 69.7391 282.408 69.6024 283.461 69.6784C284.513 69.7544 285.539 70.0415 286.478 70.5226C287.417 71.0036 288.25 71.6688 288.926 72.4785C289.603 73.2881 290.109 74.2257 290.416 75.2352C290.929 76.8117 290.972 78.5037 290.538 80.104C290.104 81.7042 289.213 83.1432 287.974 84.2447L287.966 84.2207Z" fill="#1682E7"/>
<path d="M292.196 48.997C292.196 49.1087 284.575 51.9735 275.095 55.381C265.614 58.7884 257.882 61.5256 257.842 61.4458C257.802 61.366 265.463 58.4772 274.951 55.0618C284.439 51.6463 292.156 48.8932 292.196 48.997Z" fill="#263238"/>
<path d="M301.245 50.4653C301.28 50.5346 301.309 50.6067 301.332 50.6808C301.396 50.8404 301.468 51.0479 301.564 51.3032C301.771 51.8858 302.059 52.6918 302.418 53.6972L305.482 62.6189C306.759 66.4014 308.283 70.8862 309.975 75.8657C310.773 78.3634 311.714 80.9649 312.592 83.702C313.062 85.1125 313.265 86.5982 313.191 88.083C313.123 88.8553 312.903 89.6065 312.544 90.2935C312.161 90.9782 311.649 91.5825 311.036 92.073C309.803 92.973 308.435 93.6707 306.982 94.1399L302.873 95.6162L295.092 98.4012L281.917 103.093L273.019 106.222L270.625 107.02L269.987 107.227C269.919 107.257 269.846 107.276 269.771 107.283C269.771 107.283 269.835 107.283 269.971 107.187L270.593 106.94L272.987 106.038L281.837 102.782L294.988 97.9942L302.753 95.1852L306.863 93.701C308.274 93.2509 309.602 92.5744 310.797 91.698C311.367 91.2428 311.844 90.6819 312.201 90.0461C312.539 89.4107 312.743 88.7127 312.8 87.9953C312.873 86.5646 312.678 85.1328 312.225 83.7739C311.363 81.0607 310.454 78.4352 309.632 75.9375C307.972 70.95 306.44 66.4493 305.227 62.6667C304.014 58.8842 302.992 55.8439 302.29 53.7052C301.955 52.6598 301.699 51.8459 301.492 51.2554L301.3 50.617C301.276 50.5686 301.258 50.5178 301.245 50.4653Z" fill="#263238"/>
<path d="M278.773 39.4611C278.773 39.4611 278.35 39.2536 277.568 38.9344C276.454 38.5061 275.275 38.2687 274.081 38.2322C272.312 38.1715 270.551 38.504 268.926 39.2058C266.95 40.0796 265.26 41.4929 264.05 43.2835C262.833 45.0691 262.179 47.1792 262.175 49.3404C262.192 51.1117 262.46 52.8717 262.973 54.5673C263.388 56.0196 263.819 57.1767 264.106 57.9827C264.275 58.3921 264.414 58.8135 264.521 59.2435C264.294 58.8608 264.105 58.4573 263.954 58.0386C263.627 57.2406 263.156 56.1074 262.694 54.6471C262.125 52.9337 261.816 51.1451 261.776 49.3404C261.755 47.0975 262.423 44.9023 263.691 43.0521C264.943 41.1961 266.702 39.739 268.758 38.8546C270.434 38.1491 272.25 37.8378 274.065 37.9449C275.285 38.0071 276.483 38.291 277.6 38.7828C277.899 38.9207 278.187 39.0807 278.462 39.2616C278.576 39.3115 278.681 39.3788 278.773 39.4611Z" fill="#263238"/>
<path d="M279.141 70.6866C279.268 70.6094 279.401 70.5427 279.54 70.4871C279.939 70.3069 280.353 70.1601 280.776 70.0482C281.449 69.8497 282.143 69.7318 282.843 69.6971C283.796 69.6459 284.749 69.7898 285.644 70.1201C287.687 70.8383 289.562 72.921 290.488 75.7061C290.932 77.2006 290.932 78.792 290.488 80.2866C289.996 81.9087 289.114 83.3855 287.919 84.5878L287.966 84.3723C289.028 87.285 290.185 90.4451 291.382 93.7409L291.454 93.9404L291.254 94.0122L289.427 94.6186L285.437 95.9513L285.237 96.0152L285.173 95.8157C284.08 92.5119 282.883 89.4316 281.981 86.4072L282.157 86.5429C280.597 86.4133 279.109 85.8278 277.88 84.8591C276.767 84.0022 275.855 82.9129 275.206 81.6671C274.621 80.5624 274.33 79.3258 274.361 78.0761C274.397 76.7989 274.716 75.5456 275.294 74.4061C275.873 73.2665 276.695 72.2689 277.704 71.4846C278.119 71.1476 278.585 70.8782 279.085 70.6866C278.634 70.9541 278.197 71.2444 277.776 71.5564C276.668 72.494 275.819 73.7002 275.31 75.0597C274.874 76.0848 274.669 77.1939 274.712 78.3073C274.755 79.4207 275.044 80.5109 275.558 81.4995C276.195 82.698 277.085 83.7435 278.167 84.5639C279.34 85.4846 280.758 86.0396 282.245 86.1599H282.38L282.42 86.2796C283.298 89.2481 284.503 92.3523 285.612 95.672L285.349 95.5443L289.339 94.2117L291.158 93.5972L291.031 93.8685C289.842 90.5728 288.693 87.4047 287.639 84.492V84.3723L287.735 84.2766C288.895 83.1242 289.76 81.7089 290.257 80.1509C290.68 78.7212 290.68 77.1996 290.257 75.7699C289.387 73.0886 287.591 71.0537 285.644 70.3355C284.782 70.0032 283.862 69.8484 282.939 69.8807C282.25 69.8964 281.564 69.9901 280.896 70.1599C279.707 70.4552 279.149 70.7265 279.141 70.6866Z" fill="#263238"/>
<path d="M254.474 301.101L174.762 300.734C170.159 300.709 165.754 298.857 162.514 295.587C159.275 292.316 157.466 287.893 157.486 283.29L158.331 83.4626C158.341 81.182 158.8 78.9256 159.682 76.8223C160.563 74.7191 161.851 72.8103 163.471 71.2051C165.091 69.5998 167.012 68.3296 169.123 67.467C171.234 66.6044 173.495 66.1664 175.776 66.178L255.48 66.545C260.083 66.5683 264.489 68.4176 267.73 71.6868C270.971 74.9561 272.782 79.378 272.765 83.9813L271.919 283.801C271.909 286.082 271.451 288.339 270.569 290.443C269.687 292.547 268.4 294.457 266.78 296.064C265.16 297.67 263.239 298.942 261.128 299.806C259.017 300.671 256.756 301.111 254.474 301.101Z" fill="#455A64"/>
<path d="M255.36 73.4161H239.911C239.407 73.4254 238.909 73.534 238.447 73.7356C237.985 73.9371 237.567 74.2278 237.218 74.5909C236.868 74.954 236.593 75.3825 236.409 75.8518C236.225 76.3212 236.135 76.8222 236.144 77.3263V80.1272C236.154 80.6309 236.064 81.1316 235.88 81.6005C235.695 82.0693 235.42 82.4973 235.071 82.8598C234.721 83.2222 234.303 83.5121 233.841 83.7128C233.379 83.9136 232.881 84.0212 232.378 84.0295L202.261 83.8938C201.242 83.8666 200.276 83.4362 199.574 82.6971C198.873 81.958 198.493 80.9705 198.519 79.9517V77.1507C198.544 76.1332 198.166 75.1469 197.466 74.408C196.766 73.6691 195.801 73.2378 194.784 73.2086H189.35L175.823 73.1447C172.606 73.1256 169.513 74.382 167.22 76.639C164.927 78.8959 163.622 81.9694 163.59 85.1866L162.792 280.234C162.785 281.83 163.092 283.412 163.696 284.889C164.3 286.366 165.189 287.71 166.312 288.844C167.436 289.978 168.771 290.879 170.243 291.497C171.715 292.114 173.294 292.436 174.89 292.443L254.434 292.81C256.032 292.818 257.614 292.51 259.093 291.906C260.571 291.301 261.916 290.412 263.05 289.288C264.185 288.164 265.087 286.827 265.705 285.354C266.323 283.882 266.644 282.302 266.652 280.705L267.45 85.6574C267.469 82.4312 266.206 79.3294 263.939 77.034C261.672 74.7385 258.586 73.4372 255.36 73.4161Z" fill="white"/>
<path d="M244.659 266.787L185.511 266.532C184.897 266.532 184.402 265.862 184.41 265.048L184.474 249.575C184.474 248.777 184.977 248.09 185.591 248.09L244.739 248.362C245.08 248.421 245.384 248.609 245.589 248.887C245.795 249.165 245.884 249.511 245.84 249.854L245.784 265.311C245.784 266.133 245.274 266.795 244.659 266.787Z" fill="#1682E7"/>
<path d="M203.559 258.726C203.222 258.726 202.898 258.672 202.586 258.564C202.279 258.452 202.041 258.309 201.872 258.136L202.061 257.766C202.221 257.922 202.435 258.054 202.703 258.162C202.975 258.266 203.261 258.318 203.559 258.318C203.845 258.318 204.076 258.283 204.254 258.214C204.435 258.14 204.567 258.043 204.65 257.922C204.736 257.801 204.779 257.667 204.779 257.52C204.779 257.342 204.727 257.199 204.624 257.091C204.524 256.983 204.392 256.899 204.228 256.838C204.063 256.773 203.882 256.717 203.683 256.669C203.484 256.622 203.285 256.572 203.086 256.52C202.887 256.464 202.703 256.39 202.534 256.3C202.37 256.209 202.236 256.09 202.132 255.943C202.032 255.791 201.983 255.595 201.983 255.352C201.983 255.127 202.041 254.922 202.158 254.736C202.279 254.546 202.463 254.394 202.709 254.282C202.956 254.165 203.272 254.106 203.657 254.106C203.912 254.106 204.165 254.143 204.416 254.217C204.667 254.286 204.883 254.383 205.065 254.509L204.903 254.892C204.708 254.762 204.5 254.667 204.28 254.606C204.063 254.546 203.854 254.515 203.65 254.515C203.378 254.515 203.153 254.552 202.975 254.626C202.798 254.699 202.666 254.799 202.58 254.924C202.497 255.045 202.456 255.184 202.456 255.339C202.456 255.517 202.506 255.659 202.606 255.768C202.709 255.876 202.844 255.96 203.008 256.021C203.177 256.081 203.36 256.135 203.559 256.183C203.758 256.23 203.955 256.282 204.15 256.339C204.349 256.395 204.531 256.468 204.695 256.559C204.864 256.646 204.998 256.762 205.097 256.91C205.201 257.057 205.253 257.249 205.253 257.487C205.253 257.708 205.192 257.913 205.071 258.104C204.95 258.29 204.764 258.441 204.513 258.558C204.267 258.67 203.949 258.726 203.559 258.726ZM206.299 258.688V254.145H206.779V258.688H206.299ZM208.257 258.688V254.145H208.653L211.787 258.091H211.579V254.145H212.053V258.688H211.657L208.53 254.742H208.737V258.688H208.257ZM215.528 258.726C215.182 258.726 214.862 258.67 214.567 258.558C214.278 258.441 214.025 258.279 213.808 258.071C213.596 257.863 213.43 257.619 213.309 257.338C213.192 257.057 213.133 256.75 213.133 256.416C213.133 256.083 213.192 255.776 213.309 255.495C213.43 255.214 213.598 254.969 213.815 254.762C214.031 254.554 214.284 254.394 214.574 254.282C214.868 254.165 215.188 254.106 215.534 254.106C215.88 254.106 216.196 254.161 216.482 254.269C216.771 254.377 217.018 254.541 217.221 254.762L216.923 255.067C216.733 254.876 216.523 254.74 216.293 254.658C216.064 254.576 215.818 254.535 215.554 254.535C215.273 254.535 215.013 254.582 214.775 254.677C214.541 254.768 214.336 254.9 214.159 255.073C213.986 255.242 213.849 255.441 213.75 255.67C213.655 255.895 213.607 256.144 213.607 256.416C213.607 256.685 213.655 256.933 213.75 257.163C213.849 257.392 213.986 257.593 214.159 257.766C214.336 257.935 214.541 258.067 214.775 258.162C215.013 258.253 215.27 258.298 215.547 258.298C215.807 258.298 216.051 258.259 216.28 258.181C216.514 258.104 216.728 257.972 216.923 257.786L217.195 258.149C216.979 258.339 216.726 258.484 216.436 258.584C216.146 258.679 215.844 258.726 215.528 258.726ZM217.195 258.149L216.735 258.091V256.416H217.195V258.149ZM222.082 258.726C221.503 258.726 221.046 258.56 220.713 258.227C220.38 257.894 220.214 257.401 220.214 256.747V254.145H220.694V256.728C220.694 257.264 220.815 257.66 221.057 257.915C221.299 258.171 221.641 258.298 222.082 258.298C222.528 258.298 222.872 258.171 223.114 257.915C223.356 257.66 223.478 257.264 223.478 256.728V254.145H223.945V256.747C223.945 257.401 223.778 257.894 223.445 258.227C223.116 258.56 222.662 258.726 222.082 258.726ZM225.392 258.688V254.145H227.092C227.477 254.145 227.808 254.208 228.084 254.334C228.361 254.455 228.573 254.632 228.72 254.866C228.872 255.095 228.947 255.374 228.947 255.703C228.947 256.023 228.872 256.3 228.72 256.533C228.573 256.762 228.361 256.94 228.084 257.065C227.808 257.191 227.477 257.253 227.092 257.253H225.658L225.872 257.026V258.688H225.392ZM225.872 257.065L225.658 256.832H227.079C227.533 256.832 227.877 256.734 228.11 256.54C228.348 256.341 228.467 256.062 228.467 255.703C228.467 255.339 228.348 255.058 228.11 254.859C227.877 254.66 227.533 254.561 227.079 254.561H225.658L225.872 254.334V257.065Z" fill="#E8E8E3"/>
<path d="M197.31 130.752L176.785 130.659L176.768 134.426L197.292 134.519L197.31 130.752Z" fill="#1682E7"/>
<path opacity="0.1" d="M197.31 130.752L176.785 130.659L176.768 134.426L197.292 134.519L197.31 130.752Z" fill="black"/>
<path d="M257.475 153.878C257.637 153.862 257.795 153.824 257.946 153.767C258.167 153.68 258.359 153.533 258.5 153.343C258.641 153.152 258.726 152.926 258.744 152.689C258.744 151.42 258.744 149.569 258.744 147.191C258.744 146.002 258.744 144.669 258.744 143.201C258.744 142.842 258.744 142.467 258.744 142.092C258.796 141.728 258.717 141.357 258.521 141.046C258.411 140.897 258.268 140.776 258.103 140.691C257.938 140.607 257.756 140.562 257.571 140.56H256.326H244.795L178.05 140.312C177.88 140.309 177.711 140.348 177.558 140.424C177.405 140.501 177.273 140.613 177.173 140.751C176.98 141.063 176.906 141.434 176.965 141.797C176.965 142.595 176.965 143.393 176.965 144.191C176.965 145.787 176.965 147.383 176.965 148.979C176.965 149.777 176.965 150.575 176.965 151.373C176.932 151.744 176.932 152.118 176.965 152.49C177.007 152.649 177.085 152.797 177.193 152.921C177.301 153.046 177.436 153.144 177.588 153.208C177.745 153.271 177.913 153.3 178.082 153.296H182.144L199.868 153.391L229.873 153.575L250.102 153.735L255.6 153.798H257.028C257.356 153.798 257.515 153.798 257.515 153.798H257.028H255.6H250.102H229.873L199.868 153.703L182.144 153.631H178.082C177.859 153.64 177.636 153.602 177.428 153.519C177.218 153.429 177.031 153.293 176.882 153.12C176.732 152.947 176.624 152.743 176.566 152.522C176.52 152.312 176.504 152.097 176.518 151.883V151.293C176.518 150.495 176.518 149.697 176.518 148.899C176.518 147.303 176.518 145.707 176.518 144.111C176.518 143.313 176.518 142.515 176.518 141.717C176.503 141.504 176.503 141.291 176.518 141.078C176.548 140.844 176.639 140.621 176.782 140.432C176.919 140.239 177.101 140.083 177.313 139.976C177.524 139.869 177.758 139.815 177.995 139.817L244.739 140.185L256.27 140.264H257.515C257.735 140.265 257.951 140.318 258.145 140.419C258.34 140.52 258.507 140.667 258.632 140.847C258.857 141.194 258.948 141.611 258.888 142.02C258.888 142.395 258.888 142.77 258.888 143.129C258.888 144.582 258.888 145.914 258.888 147.119C258.888 149.513 258.832 151.349 258.816 152.625C258.796 152.871 258.707 153.106 258.559 153.302C258.41 153.499 258.209 153.649 257.978 153.735C257.827 153.828 257.653 153.878 257.475 153.878Z" fill="#E0E0E0"/>
<path d="M220.488 144.318H182.95V147.838H220.488V144.318Z" fill="#1682E7"/>
<path opacity="0.2" d="M220.488 144.318H182.95V147.838H220.488V144.318Z" fill="white"/>
<path d="M197.169 165.113L176.645 165.02L176.627 168.787L197.152 168.88L197.169 165.113Z" fill="#1682E7"/>
<path opacity="0.1" d="M197.169 165.113L176.645 165.02L176.627 168.787L197.152 168.88L197.169 165.113Z" fill="black"/>
<path d="M256.957 188.24C257.118 188.22 257.278 188.191 257.436 188.152C257.658 188.081 257.864 187.963 258.037 187.807C258.21 187.65 258.348 187.457 258.441 187.243C258.567 186.92 258.616 186.573 258.585 186.229C258.585 185.846 258.585 185.431 258.585 184.968C258.585 184.043 258.585 182.989 258.585 181.776V176.709C258.623 176.342 258.542 175.973 258.353 175.656C258.156 175.33 257.847 175.089 257.483 174.977C257.086 174.906 256.681 174.885 256.278 174.913H244.795L178.282 174.666C177.924 174.667 177.579 174.798 177.31 175.034C177.042 175.27 176.868 175.596 176.822 175.951C176.822 176.709 176.822 177.547 176.822 178.345C176.822 179.941 176.822 181.537 176.822 183.133C176.822 183.931 176.822 184.729 176.822 185.527C176.792 185.9 176.808 186.275 176.87 186.644C176.969 186.968 177.174 187.249 177.452 187.442C177.747 187.629 178.093 187.718 178.442 187.697H179.551H181.857L199.517 187.785L229.418 187.969L249.575 188.128L255.058 188.192H249.575H229.418L199.501 188.16L181.841 188.096H178.37C177.938 188.122 177.51 188.007 177.149 187.769C176.786 187.518 176.521 187.148 176.399 186.724C176.327 186.318 176.306 185.906 176.335 185.495C176.335 184.697 176.335 183.899 176.335 183.101C176.335 181.505 176.335 179.909 176.335 178.313C176.335 177.515 176.335 176.717 176.335 175.919C176.393 175.463 176.616 175.043 176.961 174.739C177.306 174.435 177.75 174.267 178.21 174.267L244.723 174.634L256.207 174.722C256.634 174.696 257.063 174.725 257.483 174.81C257.898 174.945 258.248 175.229 258.465 175.608C258.671 175.959 258.761 176.367 258.72 176.773C258.72 177.148 258.72 177.515 258.72 177.882C258.72 179.326 258.72 180.651 258.72 181.872C258.72 183.093 258.72 184.122 258.72 185.064C258.72 185.519 258.72 185.942 258.72 186.333C258.749 186.69 258.692 187.048 258.553 187.378C258.449 187.598 258.299 187.794 258.113 187.951C257.928 188.108 257.71 188.223 257.475 188.288C257.301 188.302 257.126 188.286 256.957 188.24Z" fill="#E0E0E0"/>
<path d="M197.015 200.967L176.49 200.874L176.473 204.64L196.997 204.733L197.015 200.967Z" fill="#1682E7"/>
<path opacity="0.1" d="M197.015 200.967L176.49 200.874L176.473 204.64L196.997 204.733L197.015 200.967Z" fill="black"/>
<path d="M256.797 224.078C256.958 224.059 257.118 224.03 257.276 223.99C257.498 223.92 257.702 223.803 257.876 223.648C258.049 223.492 258.187 223.302 258.281 223.089C258.406 222.766 258.456 222.42 258.425 222.075C258.425 221.684 258.425 221.277 258.425 220.806C258.425 219.889 258.425 218.827 258.425 217.614V212.547C258.463 212.18 258.382 211.811 258.194 211.494C257.992 211.174 257.684 210.937 257.324 210.823C256.927 210.75 256.522 210.726 256.119 210.752H244.636L178.122 210.504C177.765 210.505 177.419 210.636 177.151 210.872C176.882 211.108 176.708 211.434 176.662 211.789C176.662 212.587 176.662 213.385 176.662 214.183C176.662 215.779 176.662 217.375 176.662 218.971C176.662 219.769 176.662 220.567 176.662 221.365C176.632 221.735 176.648 222.108 176.71 222.474C176.805 222.8 177.011 223.082 177.292 223.272C177.585 223.463 177.933 223.553 178.282 223.528H181.753L199.413 223.623L229.314 223.807L249.471 223.966L254.954 224.03H249.471H229.314L199.413 223.943L181.753 223.871H178.282C177.85 223.9 177.42 223.785 177.061 223.544C176.698 223.292 176.433 222.923 176.311 222.498C176.239 222.093 176.218 221.68 176.247 221.269C176.247 220.471 176.247 219.673 176.247 218.875C176.247 217.279 176.247 215.683 176.247 214.087C176.247 213.289 176.247 212.491 176.247 211.653C176.303 211.198 176.524 210.778 176.868 210.474C177.212 210.17 177.655 210.002 178.114 210.001L244.628 210.369L256.111 210.456C256.538 210.43 256.968 210.46 257.388 210.544C257.802 210.68 258.152 210.964 258.369 211.342C258.576 211.694 258.665 212.102 258.625 212.507C258.625 212.882 258.625 213.257 258.625 213.616C258.625 215.061 258.625 216.385 258.625 217.606C258.625 218.827 258.625 219.857 258.625 220.798C258.625 221.253 258.625 221.676 258.625 222.067C258.655 222.424 258.598 222.783 258.457 223.113C258.353 223.333 258.203 223.528 258.018 223.685C257.832 223.842 257.614 223.957 257.38 224.022C257.193 224.086 256.993 224.105 256.797 224.078Z" fill="#E0E0E0"/>
<path d="M219.686 179.675L182.148 179.505L182.132 183.024L219.67 183.194L219.686 179.675Z" fill="#1682E7"/>
<path opacity="0.2" d="M219.686 179.675L182.148 179.505L182.132 183.024L219.67 183.194L219.686 179.675Z" fill="white"/>
<path d="M185.543 217.567C185.52 217.888 185.402 218.195 185.206 218.45C185.009 218.705 184.743 218.897 184.438 219.001C184.134 219.106 183.805 219.119 183.494 219.039C183.182 218.958 182.901 218.788 182.685 218.55C182.469 218.311 182.328 218.014 182.279 217.696C182.23 217.378 182.276 217.053 182.41 216.76C182.544 216.468 182.762 216.221 183.035 216.051C183.308 215.881 183.625 215.795 183.947 215.803C184.392 215.828 184.809 216.027 185.107 216.357C185.406 216.687 185.563 217.122 185.543 217.567Z" fill="#1682E7"/>
<path d="M190.627 217.591C190.642 217.816 190.611 218.042 190.536 218.254C190.461 218.467 190.343 218.662 190.189 218.827C190.035 218.991 189.849 219.123 189.642 219.213C189.435 219.303 189.212 219.349 188.987 219.349C188.761 219.349 188.538 219.303 188.331 219.213C188.124 219.123 187.938 218.991 187.784 218.827C187.631 218.662 187.512 218.467 187.437 218.254C187.362 218.042 187.331 217.816 187.347 217.591C187.331 217.366 187.362 217.14 187.437 216.928C187.512 216.715 187.631 216.52 187.784 216.355C187.938 216.19 188.124 216.059 188.331 215.969C188.538 215.879 188.761 215.833 188.987 215.833C189.212 215.833 189.435 215.879 189.642 215.969C189.849 216.059 190.035 216.19 190.189 216.355C190.343 216.52 190.461 216.715 190.536 216.928C190.611 217.14 190.642 217.366 190.627 217.591Z" fill="#1682E7"/>
<path d="M195.718 217.615C195.694 217.936 195.577 218.243 195.381 218.498C195.184 218.753 194.917 218.944 194.613 219.049C194.309 219.154 193.98 219.167 193.669 219.086C193.357 219.006 193.076 218.836 192.86 218.598C192.644 218.359 192.502 218.062 192.454 217.744C192.405 217.426 192.45 217.1 192.585 216.808C192.719 216.515 192.937 216.269 193.21 216.099C193.483 215.929 193.8 215.843 194.122 215.851C194.566 215.878 194.981 216.078 195.28 216.407C195.578 216.737 195.735 217.17 195.718 217.615Z" fill="#1682E7"/>
<path d="M200.801 217.639C200.777 217.96 200.66 218.267 200.464 218.522C200.267 218.777 200 218.968 199.696 219.073C199.392 219.178 199.063 219.191 198.752 219.11C198.44 219.03 198.159 218.86 197.943 218.621C197.727 218.383 197.585 218.086 197.537 217.768C197.488 217.45 197.533 217.124 197.668 216.832C197.802 216.539 198.02 216.293 198.293 216.123C198.566 215.953 198.883 215.867 199.205 215.875C199.649 215.902 200.064 216.102 200.363 216.431C200.661 216.761 200.818 217.194 200.801 217.639Z" fill="#1682E7"/>
<path d="M205.885 217.655C205.862 217.976 205.746 218.284 205.551 218.54C205.355 218.796 205.089 218.989 204.784 219.095C204.48 219.201 204.151 219.215 203.839 219.135C203.527 219.056 203.245 218.887 203.028 218.648C202.811 218.41 202.669 218.113 202.62 217.794C202.571 217.476 202.616 217.15 202.75 216.857C202.884 216.564 203.102 216.317 203.375 216.147C203.649 215.977 203.966 215.89 204.289 215.899C204.731 215.926 205.145 216.124 205.443 216.452C205.742 216.78 205.9 217.212 205.885 217.655Z" fill="#1682E7"/>
<path d="M210.975 217.678C210.954 217.998 210.839 218.305 210.645 218.56C210.451 218.816 210.187 219.009 209.885 219.116C209.583 219.223 209.256 219.24 208.945 219.164C208.633 219.087 208.351 218.922 208.133 218.687C207.914 218.453 207.769 218.16 207.715 217.844C207.661 217.528 207.7 217.203 207.829 216.909C207.957 216.615 208.168 216.365 208.437 216.19C208.705 216.015 209.019 215.922 209.339 215.923C209.789 215.939 210.213 216.134 210.52 216.463C210.827 216.792 210.99 217.229 210.975 217.678Z" fill="#1682E7"/>
<path d="M216.059 217.702C216.075 217.927 216.044 218.153 215.969 218.366C215.893 218.578 215.775 218.773 215.621 218.938C215.468 219.103 215.282 219.234 215.075 219.324C214.868 219.414 214.645 219.461 214.419 219.461C214.194 219.461 213.971 219.414 213.764 219.324C213.557 219.234 213.371 219.103 213.217 218.938C213.063 218.773 212.945 218.578 212.87 218.366C212.794 218.153 212.764 217.927 212.779 217.702C212.764 217.477 212.794 217.251 212.87 217.039C212.945 216.826 213.063 216.631 213.217 216.467C213.371 216.302 213.557 216.17 213.764 216.08C213.971 215.99 214.194 215.944 214.419 215.944C214.645 215.944 214.868 215.99 215.075 216.08C215.282 216.17 215.468 216.302 215.621 216.467C215.775 216.631 215.893 216.826 215.969 217.039C216.044 217.251 216.075 217.477 216.059 217.702Z" fill="#1682E7"/>
<path d="M221.142 217.726C221.121 218.046 221.006 218.353 220.812 218.608C220.618 218.863 220.354 219.057 220.052 219.164C219.75 219.271 219.423 219.288 219.112 219.211C218.8 219.135 218.518 218.97 218.3 218.735C218.081 218.501 217.936 218.207 217.882 217.891C217.828 217.576 217.867 217.251 217.996 216.957C218.124 216.663 218.335 216.413 218.604 216.238C218.872 216.063 219.186 215.97 219.506 215.971C219.956 215.987 220.38 216.181 220.687 216.511C220.994 216.84 221.157 217.277 221.142 217.726Z" fill="#1682E7"/>
<path d="M226.225 217.75C226.203 218.072 226.087 218.38 225.892 218.636C225.696 218.892 225.43 219.085 225.125 219.191C224.821 219.297 224.492 219.311 224.18 219.231C223.868 219.152 223.586 218.982 223.369 218.744C223.152 218.505 223.01 218.209 222.961 217.89C222.911 217.572 222.957 217.246 223.091 216.953C223.225 216.66 223.443 216.413 223.716 216.243C223.99 216.072 224.307 215.986 224.629 215.995C225.072 216.022 225.486 216.22 225.784 216.548C226.082 216.876 226.241 217.307 226.225 217.75Z" fill="#1682E7"/>
<g opacity="0.2">
<path d="M185.543 217.567C185.52 217.888 185.402 218.195 185.206 218.45C185.009 218.705 184.743 218.897 184.438 219.001C184.134 219.106 183.805 219.119 183.494 219.039C183.182 218.958 182.901 218.788 182.685 218.55C182.469 218.311 182.328 218.014 182.279 217.696C182.23 217.378 182.276 217.053 182.41 216.76C182.544 216.468 182.762 216.221 183.035 216.051C183.308 215.881 183.625 215.795 183.947 215.803C184.392 215.828 184.809 216.027 185.107 216.357C185.406 216.687 185.563 217.122 185.543 217.567Z" fill="white"/>
<path d="M190.627 217.591C190.642 217.816 190.611 218.042 190.536 218.254C190.461 218.467 190.343 218.662 190.189 218.827C190.035 218.991 189.849 219.123 189.642 219.213C189.435 219.303 189.212 219.349 188.987 219.349C188.761 219.349 188.538 219.303 188.331 219.213C188.124 219.123 187.938 218.991 187.784 218.827C187.631 218.662 187.512 218.467 187.437 218.254C187.362 218.042 187.331 217.816 187.347 217.591C187.331 217.366 187.362 217.14 187.437 216.928C187.512 216.715 187.631 216.52 187.784 216.355C187.938 216.19 188.124 216.059 188.331 215.969C188.538 215.879 188.761 215.833 188.987 215.833C189.212 215.833 189.435 215.879 189.642 215.969C189.849 216.059 190.035 216.19 190.189 216.355C190.343 216.52 190.461 216.715 190.536 216.928C190.611 217.14 190.642 217.366 190.627 217.591Z" fill="white"/>
<path d="M195.718 217.615C195.694 217.936 195.577 218.243 195.381 218.498C195.184 218.753 194.917 218.944 194.613 219.049C194.309 219.154 193.98 219.167 193.669 219.086C193.357 219.006 193.076 218.836 192.86 218.598C192.644 218.359 192.502 218.062 192.454 217.744C192.405 217.426 192.45 217.1 192.585 216.808C192.719 216.515 192.937 216.269 193.21 216.099C193.483 215.929 193.8 215.843 194.122 215.851C194.566 215.878 194.981 216.078 195.28 216.407C195.578 216.737 195.735 217.17 195.718 217.615Z" fill="white"/>
<path d="M200.801 217.639C200.777 217.96 200.66 218.267 200.464 218.522C200.267 218.777 200 218.968 199.696 219.073C199.392 219.178 199.063 219.191 198.752 219.11C198.44 219.03 198.159 218.86 197.943 218.621C197.727 218.383 197.585 218.086 197.537 217.768C197.488 217.45 197.533 217.124 197.668 216.832C197.802 216.539 198.02 216.293 198.293 216.123C198.566 215.953 198.883 215.867 199.205 215.875C199.649 215.902 200.064 216.102 200.363 216.431C200.661 216.761 200.818 217.194 200.801 217.639Z" fill="white"/>
<path d="M205.885 217.655C205.862 217.976 205.746 218.284 205.551 218.54C205.355 218.796 205.089 218.989 204.784 219.095C204.48 219.201 204.151 219.215 203.839 219.135C203.527 219.056 203.245 218.887 203.028 218.648C202.811 218.41 202.669 218.113 202.62 217.794C202.571 217.476 202.616 217.15 202.75 216.857C202.884 216.564 203.102 216.317 203.375 216.147C203.649 215.977 203.966 215.89 204.289 215.899C204.731 215.926 205.145 216.124 205.443 216.452C205.742 216.78 205.9 217.212 205.885 217.655Z" fill="white"/>
<path d="M210.975 217.678C210.954 217.998 210.839 218.305 210.645 218.56C210.451 218.816 210.187 219.009 209.885 219.116C209.583 219.223 209.256 219.24 208.945 219.164C208.633 219.087 208.351 218.922 208.133 218.687C207.914 218.453 207.769 218.16 207.715 217.844C207.661 217.528 207.7 217.203 207.829 216.909C207.957 216.615 208.168 216.365 208.437 216.19C208.705 216.015 209.019 215.922 209.339 215.923C209.789 215.939 210.213 216.134 210.52 216.463C210.827 216.792 210.99 217.229 210.975 217.678Z" fill="white"/>
<path d="M216.059 217.702C216.075 217.927 216.044 218.153 215.969 218.366C215.893 218.578 215.775 218.773 215.621 218.938C215.468 219.103 215.282 219.234 215.075 219.324C214.868 219.414 214.645 219.461 214.419 219.461C214.194 219.461 213.971 219.414 213.764 219.324C213.557 219.234 213.371 219.103 213.217 218.938C213.063 218.773 212.945 218.578 212.87 218.366C212.794 218.153 212.764 217.927 212.779 217.702C212.764 217.477 212.794 217.251 212.87 217.039C212.945 216.826 213.063 216.631 213.217 216.467C213.371 216.302 213.557 216.17 213.764 216.08C213.971 215.99 214.194 215.944 214.419 215.944C214.645 215.944 214.868 215.99 215.075 216.08C215.282 216.17 215.468 216.302 215.621 216.467C215.775 216.631 215.893 216.826 215.969 217.039C216.044 217.251 216.075 217.477 216.059 217.702Z" fill="white"/>
<path d="M221.142 217.726C221.121 218.046 221.006 218.353 220.812 218.608C220.618 218.863 220.354 219.057 220.052 219.164C219.75 219.271 219.423 219.288 219.112 219.211C218.8 219.135 218.518 218.97 218.3 218.735C218.081 218.501 217.936 218.207 217.882 217.891C217.828 217.576 217.867 217.251 217.996 216.957C218.124 216.663 218.335 216.413 218.604 216.238C218.872 216.063 219.186 215.97 219.506 215.971C219.956 215.987 220.38 216.181 220.687 216.511C220.994 216.84 221.157 217.277 221.142 217.726Z" fill="white"/>
<path d="M226.225 217.75C226.203 218.072 226.087 218.38 225.892 218.636C225.696 218.892 225.43 219.085 225.125 219.191C224.821 219.297 224.492 219.311 224.18 219.231C223.868 219.152 223.586 218.982 223.369 218.744C223.152 218.505 223.01 218.209 222.961 217.89C222.911 217.572 222.957 217.246 223.091 216.953C223.225 216.66 223.443 216.413 223.716 216.243C223.99 216.072 224.307 215.986 224.629 215.995C225.072 216.022 225.486 216.22 225.784 216.548C226.082 216.876 226.241 217.307 226.225 217.75Z" fill="white"/>
</g>
<path d="M219.003 102.551C219.558 102.307 220.028 101.905 220.356 101.396C220.684 100.887 220.854 100.292 220.847 99.6863C220.867 99.2926 220.808 98.8988 220.671 98.5289C220.535 98.159 220.324 97.8207 220.053 97.5347C219.782 97.2487 219.455 97.0209 219.093 96.8653C218.73 96.7097 218.34 96.6294 217.946 96.6294C217.552 96.6294 217.162 96.7097 216.799 96.8653C216.437 97.0209 216.11 97.2487 215.839 97.5347C215.568 97.8207 215.357 98.159 215.221 98.5289C215.084 98.8988 215.025 99.2926 215.045 99.6863C215.033 100.298 215.202 100.9 215.532 101.415C215.861 101.931 216.336 102.337 216.897 102.583C212.428 103.253 212.627 108.105 212.627 108.105L223.193 108.153C223.193 108.153 223.44 103.213 219.003 102.551Z" fill="#1682E7"/>
<path opacity="0.1" d="M219.003 102.551C219.558 102.307 220.028 101.905 220.356 101.396C220.684 100.887 220.854 100.292 220.847 99.6863C220.867 99.2926 220.808 98.8988 220.671 98.5289C220.535 98.159 220.324 97.8207 220.053 97.5347C219.782 97.2487 219.455 97.0209 219.093 96.8653C218.73 96.7097 218.34 96.6294 217.946 96.6294C217.552 96.6294 217.162 96.7097 216.799 96.8653C216.437 97.0209 216.11 97.2487 215.839 97.5347C215.568 97.8207 215.357 98.159 215.221 98.5289C215.084 98.8988 215.025 99.2926 215.045 99.6863C215.033 100.298 215.202 100.9 215.532 101.415C215.861 101.931 216.336 102.337 216.897 102.583C212.428 103.253 212.627 108.105 212.627 108.105L223.193 108.153C223.193 108.153 223.44 103.213 219.003 102.551Z" fill="black"/>
<path d="M236.172 111.282L198.515 111.111L198.494 115.612L236.151 115.783L236.172 111.282Z" fill="#1682E7"/>
<path opacity="0.2" d="M236.172 111.282L198.515 111.111L198.494 115.612L236.151 115.783L236.172 111.282Z" fill="white"/>
<path d="M97.7308 134.606H97.3557L96.2704 134.686C95.6831 134.721 95.0991 134.798 94.5228 134.917C94.1496 134.97 93.7793 135.042 93.4136 135.133L92.1767 135.476C90.0714 136.122 88.0851 137.105 86.2954 138.389C83.9309 140.105 81.9564 142.302 80.502 144.836C79.6471 146.297 78.9668 147.853 78.475 149.473C77.9583 151.233 77.6608 153.05 77.5893 154.883C77.5417 155.846 77.5577 156.811 77.6371 157.772C77.6371 158.259 77.7728 158.746 77.8366 159.24C77.8903 159.739 77.9837 160.233 78.1159 160.717C78.8335 163.919 80.2895 166.909 82.3678 169.449C84.446 171.988 87.089 174.007 90.0859 175.344C92.255 176.28 94.5798 176.802 96.9408 176.884C99.3792 177.018 101.82 176.668 104.123 175.855L104.825 175.591H104.921L105.001 175.639L115.063 180.746L114.768 181.002C113.691 177.666 112.653 174.434 111.648 171.33V171.21L111.736 171.123C114.177 168.664 115.989 165.653 117.018 162.345C117.951 159.32 118.223 156.131 117.816 152.992C117.455 150.203 116.558 147.509 115.175 145.06C113.983 142.956 112.445 141.067 110.626 139.474C109.126 138.213 107.465 137.155 105.687 136.33C104.342 135.749 102.94 135.308 101.505 135.013L99.9093 134.75L98.7522 134.662L98.05 134.614H97.8106C97.8901 134.605 97.9704 134.605 98.05 134.614H98.7602L99.9173 134.662L101.513 134.893C102.966 135.167 104.386 135.592 105.751 136.162C107.559 136.978 109.25 138.033 110.778 139.298C112.63 140.885 114.201 142.773 115.422 144.884C116.845 147.36 117.769 150.09 118.144 152.92C118.584 156.107 118.331 159.352 117.401 162.432C116.365 165.809 114.525 168.884 112.039 171.394L112.087 171.186C113.092 174.291 114.138 177.522 115.223 180.85L115.375 181.337L114.92 181.105L104.857 176.006H105.032L104.314 176.27C101.967 177.095 99.4812 177.453 96.9966 177.323C94.5848 177.231 92.2113 176.69 89.9982 175.727C85.7765 173.919 82.2641 170.777 79.9992 166.781C78.957 164.936 78.1958 162.946 77.7409 160.876C77.6163 160.38 77.523 159.876 77.4616 159.368C77.3977 158.865 77.294 158.37 77.2701 157.876C77.0541 155.036 77.3542 152.181 78.1558 149.449C78.6598 147.807 79.3591 146.232 80.2386 144.757C81.7278 142.199 83.7434 139.988 86.1518 138.269C87.971 136.982 89.9906 136.006 92.1288 135.38L93.3817 135.061C93.7504 134.975 94.1233 134.909 94.4989 134.861C95.0811 134.754 95.6706 134.69 96.2625 134.67L97.3557 134.63C97.48 134.613 97.6054 134.605 97.7308 134.606Z" fill="#1682E7"/>
<path d="M102.279 153.216H100.803L97.611 148.731V145.786C97.611 145.786 95.3287 145.643 95.6 149.497C95.8713 153.351 95.6 152.37 95.6 152.37C95.6 152.37 90.7561 152.37 90.3571 152.809C89.9581 153.248 89.9342 157.924 89.8783 160.533C89.8478 161.162 90.0283 161.784 90.3912 162.298C90.7541 162.813 91.2786 163.192 91.8813 163.374C92.0503 163.421 92.2247 163.445 92.4 163.446C93.613 163.446 99.7815 162.465 99.7815 162.465H102.327L102.279 153.216Z" fill="#1682E7"/>
<path d="M106.501 152.426L105.591 162.513H103.069V152.633L106.501 152.426Z" fill="#1682E7"/>
<path d="M136.577 357.775V350.952L124.344 350.864L124.24 361.182L124.998 361.238C128.374 361.454 142.171 361.773 144.438 361.071C146.959 360.289 136.577 357.775 136.577 357.775Z" fill="#1682E7"/>
<path d="M144.725 360.432C144.725 360.544 140.145 360.64 134.503 360.64C128.861 360.64 124.28 360.544 124.28 360.432C124.28 360.32 128.861 360.225 134.503 360.225C140.145 360.225 144.725 360.32 144.725 360.432Z" fill="#263238"/>
<path d="M136.793 359.171C136.689 359.116 136.793 358.757 137.04 358.373C137.288 357.99 137.623 357.831 137.703 357.911C137.782 357.99 137.615 358.294 137.375 358.621C137.136 358.948 136.897 359.227 136.793 359.171Z" fill="#263238"/>
<path d="M137.575 359.618C137.463 359.618 137.519 359.171 137.758 358.748C137.998 358.325 138.317 358.07 138.405 358.134C138.493 358.198 138.349 358.557 138.125 358.932C137.902 359.307 137.679 359.658 137.575 359.618Z" fill="#263238"/>
<path d="M127.966 360.4C127.918 360.4 127.735 360.257 127.472 359.954C127.15 359.564 126.792 359.206 126.402 358.884C126.019 358.578 125.562 358.377 125.078 358.302C124.703 358.254 124.463 358.302 124.439 358.254C124.415 358.206 124.647 358.038 125.086 358.006C125.665 357.994 126.23 358.186 126.682 358.549C127.105 358.894 127.462 359.313 127.735 359.786C127.918 360.137 128.014 360.368 127.966 360.4Z" fill="#263238"/>
<path d="M136.832 357.887C136.888 357.982 136.681 358.222 136.329 358.349C135.978 358.477 135.667 358.429 135.651 358.349C135.635 358.27 135.883 358.102 136.186 357.99C136.489 357.879 136.768 357.791 136.832 357.887Z" fill="#263238"/>
<path d="M136.641 357.224C136.641 357.344 136.322 357.44 135.907 357.448C135.492 357.456 135.165 357.36 135.173 357.248C135.181 357.137 135.508 357.033 135.907 357.025C136.306 357.017 136.625 357.113 136.641 357.224Z" fill="#263238"/>
<path d="M166.701 357.775V350.952L154.468 350.864L154.364 361.079L155.122 361.135C158.498 361.35 172.303 361.773 174.562 361.071C177.083 360.289 166.701 357.775 166.701 357.775Z" fill="#1682E7"/>
<path d="M174.849 360.448C174.849 360.56 170.276 360.656 164.627 360.656C158.977 360.656 154.412 360.56 154.412 360.448C154.412 360.336 158.985 360.241 164.627 360.241C170.268 360.241 174.849 360.336 174.849 360.448Z" fill="#263238"/>
<path d="M166.917 359.171C166.822 359.116 166.917 358.757 167.165 358.373C167.412 357.99 167.747 357.831 167.827 357.911C167.907 357.99 167.739 358.294 167.5 358.621C167.261 358.948 167.021 359.227 166.917 359.171Z" fill="#263238"/>
<path d="M167.699 359.618C167.595 359.618 167.643 359.171 167.89 358.748C168.138 358.325 168.449 358.07 168.537 358.134C168.625 358.198 168.473 358.557 168.25 358.932C168.026 359.307 167.811 359.658 167.699 359.618Z" fill="#263238"/>
<path d="M158.091 360.4C158.043 360.4 157.868 360.257 157.597 359.954C157.275 359.564 156.917 359.206 156.527 358.884C156.144 358.578 155.687 358.377 155.203 358.302C154.836 358.254 154.588 358.302 154.564 358.254C154.54 358.206 154.772 358.038 155.211 358.006C155.79 357.994 156.355 358.186 156.807 358.549C157.232 358.892 157.589 359.311 157.86 359.786C158.043 360.137 158.139 360.368 158.091 360.4Z" fill="#263238"/>
<path d="M166.957 357.887C167.013 357.982 166.806 358.222 166.454 358.349C166.103 358.477 165.792 358.429 165.776 358.349C165.76 358.27 166.008 358.102 166.311 357.99C166.614 357.879 166.893 357.791 166.957 357.887Z" fill="#263238"/>
<path d="M166.782 357.224C166.782 357.344 166.463 357.44 166.048 357.448C165.633 357.456 165.313 357.36 165.321 357.248C165.329 357.137 165.649 357.033 166.048 357.025C166.447 357.017 166.782 357.113 166.782 357.224Z" fill="#263238"/>
<path d="M211.773 155.163C211.454 154.836 210.664 154.995 210.664 154.995C210.743 154.536 210.743 154.066 210.664 153.607C210.52 153.16 209.514 153.248 209.514 153.248C209.468 152.871 209.468 152.491 209.514 152.114C209.522 152.031 209.505 151.947 209.463 151.874C209.422 151.801 209.359 151.743 209.283 151.707C208.807 151.513 208.296 151.421 207.783 151.436C207.168 150.997 209.658 147.51 210.584 146.393C211.509 145.276 211.342 144.406 210.52 144.406C209.953 144.406 207.049 147.757 206.155 148.883C205.261 150.008 202.891 153.136 202.811 150.638C202.731 148.14 201.726 146.257 201.096 145.938C200.465 145.619 199.795 146.369 200.138 147.063C200.439 147.852 200.628 148.679 200.697 149.521C200.783 150.191 200.754 150.872 200.609 151.532C200.344 152.76 199.984 153.966 199.531 155.139H199.468C199.468 155.139 182.055 171.841 180.794 173.03C179.669 174.099 157.038 171.761 152.497 171.282C150.954 171.057 149.396 170.95 147.837 170.963C145.866 171.051 145.515 171.33 143.552 171.354C138.594 171.409 133.648 171.844 128.757 172.655C126.542 173.031 124.473 174.009 122.776 175.481C121.079 176.953 119.819 178.863 119.133 181.002C114.56 195.286 104.202 229.098 102.375 248.09C100.994 250.594 99.7475 253.17 98.6403 255.807C97.3556 259.302 97.6668 259.422 98.0977 259.501C99.2628 259.717 100.587 253.444 101.082 254.961C101.577 256.477 98.5685 262.438 99.7895 262.613C101.385 262.837 102.654 256.229 102.806 255.703C102.958 255.176 103.748 255.344 103.604 255.838C103.372 256.541 101.13 263.986 102.694 264.225C103.556 264.353 103.652 262.781 103.652 262.781C103.652 262.781 105.248 255.655 105.974 255.799C106.7 255.942 105.926 260.148 105.559 261.552C105.192 262.957 105.703 263.667 106.453 263.324C106.963 263.084 108.184 258.815 108.52 257.426C108.855 256.038 109.693 252.192 110.818 254.418C111.943 256.644 113.651 257.937 114.353 257.969C114.511 257.951 114.66 257.886 114.781 257.782C114.902 257.678 114.989 257.541 115.031 257.387C115.073 257.233 115.068 257.071 115.017 256.92C114.966 256.769 114.871 256.637 114.744 256.541C114.14 255.951 113.622 255.279 113.204 254.546C112.832 253.974 112.562 253.342 112.406 252.678C112.084 251.355 111.897 250.002 111.847 248.641L111.72 247.843C113.507 238.993 118.654 213.018 126.084 196.427L129.132 202.7L130.457 207.344L122.333 227.398L156.982 226.943L151.811 207.041L158.091 186.293C164.882 186.444 182.319 186.7 185.223 185.383C188.878 183.787 207.783 159.911 207.783 159.911C209.015 158.953 210.195 157.93 211.318 156.847C211.318 156.847 212.467 155.881 211.773 155.163Z" fill="#FFBE9D"/>
<path d="M120.808 212.579C121.814 209.148 126.977 192.182 126.977 192.182C126.977 192.182 129.515 206.011 128.844 207.679C128.228 209.107 127.499 210.484 126.666 211.797C120.808 220.711 121.575 225.171 121.575 225.171L156.966 224.094C157.046 219.146 154.117 207.639 153.511 205.804C152.904 203.968 154.923 197.96 154.923 197.96C154.923 197.96 158.913 193.898 158.769 191.807C158.694 189.929 158.461 188.06 158.075 186.221L179.621 187.019L178.943 172.416L147.996 169.319C146.919 172.36 137.175 170.867 137.175 170.867C126.658 171.219 126.003 173.15 121.63 176.549C117.257 179.949 110.02 209.124 110.02 209.124L120.808 212.579Z" fill="#1682E7"/>
<path d="M141.733 209.123C141.119 209.233 140.495 209.265 139.873 209.219C138.716 209.219 137.128 209.139 135.381 208.964C133.633 208.788 132.053 208.541 130.928 208.317C130.307 208.237 129.699 208.082 129.116 207.854C129.74 207.855 130.363 207.914 130.976 208.03C132.109 208.174 133.681 208.373 135.42 208.549C137.16 208.724 138.74 208.844 139.881 208.924C140.503 208.932 141.123 208.998 141.733 209.123Z" fill="#263238"/>
<path d="M144.158 206.115C143.545 206.416 142.896 206.638 142.227 206.778C139.043 207.614 135.758 208.004 132.467 207.935C131.786 207.957 131.105 207.892 130.44 207.743C131.113 207.658 131.79 207.624 132.467 207.639C133.72 207.6 135.444 207.512 137.343 207.288C139.242 207.065 140.934 206.746 142.131 206.49C142.796 206.313 143.474 206.187 144.158 206.115Z" fill="#263238"/>
<path d="M156.064 192.692C156.048 193.301 155.965 193.906 155.817 194.496C155.609 195.605 155.29 197.121 154.883 198.781C154.476 200.441 154.085 201.973 153.734 203.011C153.593 203.604 153.384 204.18 153.111 204.726C153.156 204.12 153.268 203.52 153.446 202.939C153.75 201.694 154.093 200.257 154.476 198.685C154.859 197.113 155.226 195.677 155.529 194.432C155.637 193.833 155.817 193.249 156.064 192.692Z" fill="#263238"/>
<path d="M121.184 210.544C119.338 210.259 117.516 209.835 115.733 209.275C113.912 208.85 112.125 208.289 110.387 207.6C112.232 207.889 114.054 208.313 115.837 208.868C117.659 209.293 119.446 209.853 121.184 210.544Z" fill="#263238"/>
<path d="M158.458 186.045C158.157 186.097 157.849 186.097 157.548 186.045C156.715 185.96 155.896 185.764 155.114 185.463C153.809 184.972 152.621 184.214 151.626 183.237C150.631 182.26 149.851 181.085 149.337 179.789C148.769 178.363 148.526 176.828 148.627 175.296C148.662 174.033 149.04 172.803 149.72 171.737C150.198 171.019 150.912 170.491 151.739 170.245C151.96 170.184 152.188 170.154 152.417 170.157C152.577 170.157 152.657 170.157 152.657 170.157C152.657 170.157 152.321 170.157 151.787 170.372C151.029 170.653 150.385 171.178 149.959 171.865C148.874 173.572 148.571 176.693 149.728 179.605C150.266 180.979 151.11 182.212 152.194 183.212C153.082 184.031 154.105 184.689 155.218 185.159C156.263 185.572 157.349 185.869 158.458 186.045Z" fill="#263238"/>
<path d="M177.06 186.732C176.86 184.284 176.796 181.828 176.868 179.374C176.806 176.922 176.881 174.468 177.092 172.024C177.292 174.469 177.356 176.922 177.283 179.374C177.351 181.829 177.276 184.285 177.06 186.732Z" fill="#263238"/>
<path d="M147.789 170.213C147.877 168.434 148.06 166.423 148.06 166.423C148.06 166.423 152.465 165.936 152.728 161.387C152.992 156.839 152.728 146.345 152.728 146.345L144.748 142.259L135.891 149.226L137.255 171.969L145.379 172.488C146 172.505 146.602 172.275 147.054 171.849C147.506 171.422 147.77 170.834 147.789 170.213Z" fill="#FFBE9D"/>
<path d="M148.579 157.788C148.579 157.788 148.579 157.876 148.507 157.98C148.448 158.055 148.371 158.115 148.283 158.154C148.196 158.192 148.1 158.21 148.004 158.203C147.494 158.203 146.999 157.613 146.823 156.926C146.74 156.594 146.74 156.246 146.823 155.913C146.84 155.768 146.892 155.629 146.976 155.509C147.059 155.389 147.171 155.292 147.302 155.227C147.409 155.182 147.53 155.182 147.637 155.227C147.717 155.266 147.781 155.331 147.821 155.41C147.877 155.546 147.821 155.634 147.821 155.626C147.821 155.618 147.821 155.546 147.741 155.466C147.699 155.409 147.638 155.369 147.569 155.354C147.5 155.34 147.427 155.351 147.366 155.386C147.268 155.445 147.187 155.528 147.13 155.627C147.072 155.726 147.041 155.838 147.039 155.953C146.972 156.25 146.972 156.558 147.039 156.855C147.198 157.477 147.629 157.98 148.012 158.028C148.087 158.038 148.164 158.032 148.236 158.012C148.309 157.991 148.377 157.956 148.435 157.908C148.531 157.844 148.563 157.78 148.579 157.788Z" fill="#EB996E"/>
<path d="M155.466 143.887C154.851 141.796 152.625 140.759 150.598 140.184C147.51 139.306 144.174 138.923 141.158 140.033C138.141 141.142 134.518 143.089 134.518 146.417C132.739 146.273 131.717 147.829 131.015 149.76C130.566 150.937 130.297 152.174 130.217 153.431C129.994 157.788 128.773 163.805 125.948 166.997C124.352 168.777 122.141 170.006 121.232 172.224C120.434 174.147 120.848 176.429 120.106 178.377C119.444 180.092 117.984 181.313 116.914 182.805C115.825 184.498 115.184 186.44 115.051 188.449C114.919 190.458 115.299 192.467 116.156 194.289C117.02 196.063 118.236 197.644 119.73 198.933C121.224 200.223 122.965 201.195 124.846 201.79C128.574 202.924 132.549 202.963 136.298 201.902C139.111 201.229 141.736 199.927 143.975 198.095C146.265 196.225 147.838 193.62 148.427 190.722C148.994 187.466 148.084 184.154 147.406 180.914C145.283 170.676 145.89 170.141 148.571 160.637C148.635 160.469 148.667 160.294 148.715 160.126C148.763 159.959 148.786 159.879 148.818 159.751C148.895 159.376 148.935 158.993 148.938 158.61C148.546 158.756 148.121 158.787 147.713 158.699C147.304 158.611 146.929 158.409 146.632 158.115C146.334 157.802 146.126 157.415 146.03 156.993C145.935 156.572 145.955 156.132 146.089 155.721C146.278 155.272 146.558 154.867 146.913 154.533C147.267 154.199 147.688 153.943 148.148 153.782C149.034 153.415 149.983 153.224 150.853 152.817C152.697 151.939 153.973 150.119 154.843 148.212C155.558 146.89 155.779 145.357 155.466 143.887Z" fill="#263238"/>
<path d="M148.898 158.004C149.067 158.253 149.206 158.521 149.313 158.802C149.553 159.305 149.872 160.015 150.223 160.837L150.287 160.988H150.119L149.321 161.06C148.771 161.06 148.308 161.164 147.765 161.156C147.718 161.145 147.674 161.123 147.638 161.091C147.602 161.059 147.574 161.018 147.558 160.972C147.534 160.9 147.534 160.822 147.558 160.749C147.576 160.641 147.6 160.535 147.63 160.43L147.773 159.863C147.845 159.485 147.958 159.116 148.108 158.762C148.094 159.147 148.037 159.53 147.941 159.903L147.829 160.47C147.789 160.661 147.717 160.957 147.829 160.933C148.228 160.933 148.795 160.845 149.321 160.813L150.119 160.741L150.016 160.917C149.673 160.119 149.385 159.368 149.218 158.85C149.071 158.585 148.963 158.3 148.898 158.004Z" fill="#1682E7"/>
<path d="M121.574 225.171L156.966 224.094L172.367 284.215L169.534 353.178H150.821L153.111 285.683L139.426 243.828L141.532 355.852L122.62 356.131L120.633 250.835C120.545 247.906 119.587 241.307 119.946 238.402L121.574 225.171Z" fill="#263238"/>
<path d="M144.134 244.682C143.555 244.719 142.973 244.684 142.402 244.579C141.333 244.451 139.872 244.228 138.269 243.908C136.665 243.589 135.228 243.222 134.191 242.927C133.636 242.805 133.1 242.612 132.595 242.352C132.595 242.233 135.196 242.855 138.388 243.501C141.58 244.148 144.15 244.563 144.134 244.682Z" fill="#455A64"/>
<path d="M169.343 349.396C169.343 349.508 165.105 349.603 159.879 349.603C154.652 349.603 150.406 349.508 150.406 349.396C150.406 349.284 154.644 349.188 159.879 349.188C165.113 349.188 169.343 349.276 169.343 349.396Z" fill="#455A64"/>
<path d="M141.365 352.939C141.365 353.059 137.248 353.146 132.172 353.146C127.097 353.146 122.987 353.059 122.987 352.939C122.987 352.819 127.105 352.731 132.172 352.731C137.24 352.731 141.365 352.827 141.365 352.939Z" fill="#455A64"/>
<path d="M138.923 352.652C138.811 352.652 138.316 328.177 137.814 297.989C137.311 267.801 137.016 243.31 137.119 243.31C137.223 243.31 137.734 267.777 138.229 297.981C138.723 328.185 139.042 352.652 138.923 352.652Z" fill="#455A64"/>
<path d="M166.829 349.396C166.821 349.287 166.821 349.178 166.829 349.069V348.111C166.829 347.249 166.893 346.013 166.941 344.44C167.053 341.248 167.212 336.612 167.412 330.93C167.843 319.503 168.449 303.75 169.112 286.362C169.112 286.194 169.112 286.035 169.112 285.891V285.947C164.922 269.189 161.132 253.979 158.379 242.975L155.187 229.959C154.819 228.435 154.54 227.246 154.341 226.416C154.245 226.025 154.181 225.722 154.125 225.491C154.094 225.387 154.075 225.28 154.069 225.171C154.111 225.272 154.143 225.376 154.165 225.483C154.229 225.706 154.309 226.009 154.42 226.392C154.636 227.19 154.947 228.403 155.346 229.919C156.144 233 157.269 237.437 158.674 242.903C161.451 253.899 165.281 269.069 169.527 285.851V285.907C169.527 286.051 169.527 286.218 169.527 286.378C168.816 303.766 168.17 319.511 167.699 330.938C167.452 336.628 167.244 341.232 167.101 344.44C167.021 346.036 166.957 347.249 166.917 348.111C166.917 348.518 166.869 348.837 166.861 349.069C166.862 349.179 166.852 349.288 166.829 349.396Z" fill="#455A64"/>
<path d="M160.724 284.486C159.38 284.928 157.996 285.236 156.591 285.404C154.867 285.699 153.399 285.907 152.736 285.939V285.779C152.952 285.843 153.063 285.883 153.063 285.915C153.063 285.947 152.928 285.915 152.704 285.915H152.226L152.704 285.771C153.327 285.588 154.795 285.284 156.519 284.973C157.901 284.673 159.31 284.51 160.724 284.486Z" fill="#455A64"/>
<path d="M160.397 286.777C159.153 286.834 157.905 286.778 156.671 286.609C155.424 286.584 154.182 286.448 152.96 286.202C155.454 285.999 157.964 286.193 160.397 286.777Z" fill="#455A64"/>
<path opacity="0.2" d="M121.423 226.44C121.842 226.978 122.37 227.422 122.972 227.742C123.574 228.063 124.238 228.252 124.918 228.299C126.343 228.468 127.785 228.441 129.203 228.219C138.34 227.206 148.02 226.272 156.966 224.094C145.387 224.74 133.153 224.525 121.574 225.171L121.455 226.161" fill="black"/>
<g opacity="0.2">
<path d="M133.354 242.759L139.881 268.088L139.426 243.829L133.354 242.759Z" fill="black"/>
</g>
</svg>
