<svg width="24" height="24" viewBox="0 0 24 24" fill="none" xmlns="http://www.w3.org/2000/svg">
<path d="M12 4.5C10.3195 4.49996 8.67669 4.99807 7.27918 5.93137C5.88166 6.86467 4.79216 8.19128 4.14834 9.74357C3.50452 11.2959 3.33529 13.0042 3.66202 14.6526C3.98875 16.301 4.79678 17.8156 5.98401 19.005C6.12056 19.1465 6.19607 19.336 6.19427 19.5327C6.19247 19.7293 6.1135 19.9174 5.97438 20.0564C5.83526 20.1954 5.64711 20.2741 5.45046 20.2758C5.25381 20.2774 5.06439 20.2017 4.92301 20.065C3.99489 19.1376 3.25894 18.0362 2.75735 16.8238C2.25576 15.6115 1.99839 14.312 2.00001 13C2.00001 7.477 6.47701 3 12 3C17.523 3 22 7.477 22 13C22.0016 14.312 21.7443 15.6115 21.2427 16.8238C20.7411 18.0362 20.0051 19.1376 19.077 20.065C18.9356 20.2017 18.7462 20.2774 18.5496 20.2758C18.3529 20.2741 18.1648 20.1954 18.0256 20.0564C17.8865 19.9174 17.8075 19.7293 17.8057 19.5327C17.8039 19.336 17.8795 19.1465 18.016 19.005C19.2032 17.8156 20.0113 16.301 20.338 14.6526C20.6647 13.0042 20.4955 11.2959 19.8517 9.74357C19.2079 8.19128 18.1184 6.86467 16.7208 5.93137C15.3233 4.99807 13.6805 4.49996 12 4.5ZM12 8C11.0109 8.00001 10.0441 8.29337 9.22175 8.84297C8.39943 9.39256 7.75858 10.1737 7.38027 11.0876C7.00196 12.0014 6.90319 13.007 7.09646 13.977C7.28972 14.947 7.76633 15.8379 8.46601 16.537C8.60269 16.6784 8.67838 16.8678 8.67677 17.0645C8.67515 17.2611 8.59636 17.4492 8.45737 17.5884C8.31838 17.7275 8.13031 17.8065 7.93366 17.8083C7.73701 17.8101 7.54752 17.7346 7.40601 17.598C6.49635 16.6892 5.87666 15.531 5.62536 14.27C5.37405 13.0089 5.50241 11.7017 5.9942 10.5136C6.48598 9.32552 7.3191 8.30999 8.38816 7.59549C9.45721 6.88099 10.7142 6.49961 12 6.49961C13.2859 6.49961 14.5428 6.88099 15.6119 7.59549C16.6809 8.30999 17.514 9.32552 18.0058 10.5136C18.4976 11.7017 18.626 13.0089 18.3747 14.27C18.1234 15.531 17.5037 16.6892 16.594 17.598C16.4518 17.7305 16.2638 17.8026 16.0695 17.7992C15.8752 17.7957 15.6898 17.717 15.5524 17.5796C15.415 17.4422 15.3363 17.2568 15.3328 17.0625C15.3294 16.8682 15.4015 16.6802 15.534 16.538C16.234 15.839 16.7109 14.948 16.9044 13.9778C17.0979 13.0076 16.9992 12.0018 16.6208 11.0878C16.2425 10.1737 15.6015 9.39239 14.7789 8.84275C13.9564 8.2931 12.9893 7.99981 12 8ZM12 10.5C11.337 10.5 10.7011 10.7634 10.2322 11.2322C9.7634 11.7011 9.50001 12.337 9.50001 13C9.50001 13.663 9.7634 14.2989 10.2322 14.7678C10.7011 15.2366 11.337 15.5 12 15.5C12.663 15.5 13.2989 15.2366 13.7678 14.7678C14.2366 14.2989 14.5 13.663 14.5 13C14.5 12.337 14.2366 11.7011 13.7678 11.2322C13.2989 10.7634 12.663 10.5 12 10.5ZM11 13C11 12.7348 11.1054 12.4804 11.2929 12.2929C11.4804 12.1054 11.7348 12 12 12C12.2652 12 12.5196 12.1054 12.7071 12.2929C12.8947 12.4804 13 12.7348 13 13C13 13.2652 12.8947 13.5196 12.7071 13.7071C12.5196 13.8946 12.2652 14 12 14C11.7348 14 11.4804 13.8946 11.2929 13.7071C11.1054 13.5196 11 13.2652 11 13Z" fill="#9AA2B0"/>
</svg>
