<svg width="39" height="40" viewBox="0 0 39 40" fill="none" xmlns="http://www.w3.org/2000/svg">
<path d="M19.5 0.5C29.9915 0.5 38.5 9.04098 38.5 19.5811C38.4999 30.1211 29.9914 38.6621 19.5 38.6621C9.00858 38.6621 0.500055 30.1211 0.5 19.5811C0.5 9.04098 9.00854 0.5 19.5 0.5Z" stroke="#DCE8F3"/>
<path d="M23.5448 20.7522L24.019 17.6939H21.0542V15.7093C21.0542 14.8726 21.4684 14.057 22.7962 14.057H24.1441V11.4532C24.1441 11.4532 22.9209 11.2466 21.7515 11.2466C19.3099 11.2466 17.714 12.7114 17.714 15.3631V17.6939H15V20.7522H17.714V28.1455H21.0542V20.7522H23.5448Z" fill="#DCE8F3"/>
</svg>
