<svg width="39" height="40" viewBox="0 0 39 40" fill="none" xmlns="http://www.w3.org/2000/svg">
<path d="M19.5 0.5C29.9915 0.5 38.5 9.04098 38.5 19.5811C38.4999 30.1211 29.9914 38.6621 19.5 38.6621C9.00858 38.6621 0.500055 30.1211 0.5 19.5811C0.5 9.04098 9.00854 0.5 19.5 0.5Z" stroke="#DCE8F3"/>
<path d="M30.0044 17.5198H27.9997V19.5154H26.0041V21.5201H27.9997V23.5157H30.0044V21.5201H32V19.5154H30.0044V17.5198ZM16.875 27.1448C20.8423 27.1448 23.4778 24.3599 23.4778 20.4293C23.4778 19.9792 23.431 19.6318 23.3659 19.2853H16.8759V21.6484H20.7782C20.6187 22.6522 19.5966 24.612 16.8759 24.612C14.532 24.612 12.618 22.6705 12.618 20.2698C12.618 17.869 14.5311 15.9266 16.8759 15.9266C18.217 15.9266 19.108 16.4986 19.6149 16.9863L21.4812 15.1951C20.2795 14.0704 18.7322 13.3948 16.875 13.3948C13.0763 13.3948 10 16.4711 10 20.2698C10 24.0684 13.0763 27.1448 16.875 27.1448Z" fill="#DCE8F3"/>
</svg>
