<svg width="24" height="24" viewBox="0 0 24 24" fill="none" xmlns="http://www.w3.org/2000/svg">
<path d="M4.5 22.5L2 20V9C4 9 5.5 10 5.5 12V15M19.532 22.5L22.032 20V9C20.032 9 18.532 10 18.532 12V15M14 5V2H10V5H7V9H10V12H14V9H17V5H14Z" stroke="#9AA2B0" stroke-width="1.5"/>
<path d="M6.65601 19.337L5.64601 18.327C4.43401 17.115 4.73701 15.6 5.94901 14.387L10.002 18.441V23M17.376 19.337L18.386 18.327C19.598 17.115 19.296 15.6 18.083 14.387L14.03 18.441V23" stroke="#9AA2B0" stroke-width="1.5"/>
</svg>
