<svg width="39" height="40" viewBox="0 0 39 40" fill="none" xmlns="http://www.w3.org/2000/svg">
<path d="M19.5 0.5C29.9915 0.5 38.5 9.04098 38.5 19.5811C38.4999 30.1211 29.9914 38.6621 19.5 38.6621C9.00858 38.6621 0.500055 30.1211 0.5 19.5811C0.5 9.04098 9.00854 0.5 19.5 0.5Z" stroke="#DCE8F3"/>
<path d="M28.6 26.7104V20.6054C28.6 17.605 27.9567 15.313 24.4707 15.313C22.79 15.313 21.6695 16.2298 21.213 17.105H21.1715V15.5839H17.8722V26.7104H21.3167V21.1888C21.3167 19.7303 21.5865 18.3343 23.371 18.3343C25.1347 18.3343 25.1555 19.9803 25.1555 21.2722V26.6896H28.6V26.7104ZM12.2698 15.5839H15.7142V26.7104H12.2698V15.5839ZM13.992 10.0415C12.8922 10.0415 12 10.9375 12 12.0418C12 13.1461 12.8922 14.0629 13.992 14.0629C15.0917 14.0629 15.984 13.1461 15.984 12.0418C15.984 10.9375 15.0917 10.0415 13.992 10.0415Z" fill="#DCE8F3"/>
</svg>
