<svg width="66" height="65" viewBox="0 0 66 65" fill="none" xmlns="http://www.w3.org/2000/svg">
<rect width="66" height="65" rx="32.5" fill="url(#paint0_linear_43_103)"/>
<path d="M32.0835 23.1059L20.753 42.7517H43.414L40.6781 38.0068C41.4358 38.4009 42.2544 38.6646 43.0997 38.7867L45.6332 43.1788C45.7082 43.3087 45.7476 43.4561 45.7476 43.6061C45.7476 43.7561 45.708 43.9034 45.633 44.0333C45.5579 44.1632 45.4499 44.271 45.32 44.3459C45.19 44.4208 45.0426 44.4602 44.8926 44.46H19.2736C19.1236 44.46 18.9763 44.4206 18.8465 44.3456C18.7167 44.2706 18.6088 44.1628 18.5339 44.0329C18.4589 43.9031 18.4194 43.7558 18.4194 43.6059C18.4194 43.4559 18.4589 43.3086 18.5339 43.1788L31.3438 20.9687C31.4188 20.8389 31.5266 20.7311 31.6565 20.6561C31.7863 20.5812 31.9336 20.5417 32.0835 20.5417C32.2334 20.5417 32.3807 20.5812 32.5106 20.6561C32.6404 20.7311 32.7483 20.8389 32.8232 20.9687L37.1111 28.4026C36.7938 29.1968 36.6127 30.0388 36.5756 30.8933L32.0835 23.1059Z" fill="#DCE8F3"/>
<path fill-rule="evenodd" clip-rule="evenodd" d="M41.8912 36.6914C42.6211 37.0001 43.4058 37.1584 44.1983 37.1569C45.5659 37.1594 46.8919 36.6863 47.9489 35.8184L51.299 39.1676L52.587 37.8795L49.167 34.4595C49.8283 33.4397 50.1598 32.2411 50.1165 31.0264C50.0732 29.8117 49.6572 28.6398 48.9249 27.6697C48.1927 26.6996 47.1797 25.9783 46.0234 25.6037C44.8671 25.2291 43.6236 25.2194 42.4616 25.5758C41.2996 25.9323 40.2754 26.6377 39.5281 27.5962C38.7807 28.5547 38.3464 29.72 38.2842 30.9339C38.2219 32.1477 38.5346 33.3513 39.1799 34.3814C39.8252 35.4114 40.7718 36.2179 41.8912 36.6914ZM40.0983 31.235C40.0983 32.3224 40.5302 33.3652 41.2991 34.1341C42.068 34.903 43.1109 35.335 44.1983 35.335C45.2857 35.335 46.3285 34.903 47.0974 34.1341C47.8663 33.3652 48.2983 32.3224 48.2983 31.235C48.2983 30.1476 47.8663 29.1047 47.0974 28.3358C46.3285 27.5669 45.2857 27.135 44.1983 27.135C43.1109 27.135 42.068 27.5669 41.2991 28.3358C40.5302 29.1047 40.0983 30.1476 40.0983 31.235Z" fill="#DCE8F3"/>
<path d="M31.0156 37.6677H33.151V39.8031H31.0156V37.6677ZM32.0833 29.1218C31.494 29.1218 31.0156 29.6001 31.0156 30.1895V34.8874C31.0156 35.1706 31.1281 35.4421 31.3283 35.6424C31.5286 35.8426 31.8002 35.9551 32.0833 35.9551C32.3665 35.9551 32.6381 35.8426 32.8383 35.6424C33.0386 35.4421 33.151 35.1706 33.151 34.8874V30.1895C33.151 29.6001 32.6727 29.1218 32.0833 29.1218Z" fill="#DCE8F3"/>
<defs>
<linearGradient id="paint0_linear_43_103" x1="33" y1="0" x2="33" y2="65" gradientUnits="userSpaceOnUse">
<stop stop-color="#5A3CDD"/>
<stop offset="1" stop-color="#1D0F71"/>
</linearGradient>
</defs>
</svg>
