<svg width="24" height="24" viewBox="0 0 24 24" fill="none" xmlns="http://www.w3.org/2000/svg">
<path d="M12 15C13.6569 15 15 13.6569 15 12C15 10.3431 13.6569 9 12 9C10.3431 9 9 10.3431 9 12C9 13.6569 10.3431 15 12 15Z" stroke="#9AA2B0" stroke-width="1.5"/>
<path d="M3.66099 10.64C4.13399 10.936 4.43799 11.442 4.43799 12C4.43799 12.558 4.13399 13.064 3.66099 13.36C3.33999 13.563 3.13199 13.724 2.98499 13.916C2.82508 14.1244 2.70781 14.3623 2.63986 14.6161C2.57191 14.8699 2.55463 15.1345 2.58899 15.395C2.64099 15.789 2.87399 16.193 3.33899 17C3.80599 17.807 4.03899 18.21 4.35399 18.453C4.56243 18.6129 4.80033 18.7302 5.0541 18.7981C5.30787 18.8661 5.57254 18.8834 5.83299 18.849C6.07299 18.817 6.31599 18.719 6.65199 18.541C6.89254 18.4097 7.16247 18.3415 7.43652 18.3429C7.71058 18.3443 7.9798 18.4152 8.21899 18.549C8.70199 18.829 8.98899 19.344 9.00899 19.902C9.02299 20.282 9.05899 20.542 9.15199 20.765C9.25251 21.0078 9.39989 21.2284 9.58572 21.4143C9.77154 21.6001 9.99217 21.7475 10.235 21.848C10.602 22 11.068 22 12 22C12.932 22 13.398 22 13.765 21.848C14.0078 21.7475 14.2284 21.6001 14.4143 21.4143C14.6001 21.2284 14.7475 21.0078 14.848 20.765C14.94 20.542 14.977 20.282 14.991 19.902C15.011 19.344 15.298 18.828 15.781 18.549C16.0202 18.4152 16.2894 18.3443 16.5635 18.3429C16.8375 18.3415 17.1074 18.4097 17.348 18.541C17.684 18.719 17.928 18.817 18.168 18.849C18.6937 18.9181 19.2253 18.7757 19.646 18.453C19.961 18.211 20.194 17.807 20.66 17C20.868 16.64 21.029 16.361 21.149 16.127M20.339 13.361C20.1051 13.2185 19.9111 13.019 19.7752 12.7811C19.6393 12.5433 19.566 12.2749 19.562 12.001C19.562 11.442 19.866 10.936 20.339 10.639C20.66 10.437 20.867 10.276 21.015 10.084C21.1749 9.87556 21.2922 9.63767 21.3601 9.38389C21.4281 9.13012 21.4454 8.86545 21.411 8.605C21.359 8.211 21.126 7.807 20.661 7C20.194 6.193 19.961 5.79 19.646 5.547C19.4376 5.38709 19.1997 5.26981 18.9459 5.20187C18.6921 5.13392 18.4274 5.11664 18.167 5.151C17.927 5.183 17.684 5.281 17.347 5.459C17.1066 5.59014 16.8368 5.6582 16.563 5.6568C16.2891 5.6554 16.0201 5.58459 15.781 5.451C15.5456 5.31069 15.3497 5.11298 15.2116 4.87635C15.0734 4.63973 14.9975 4.37193 14.991 4.098C14.977 3.718 14.941 3.458 14.848 3.235C14.7475 2.99218 14.6001 2.77155 14.4143 2.58572C14.2284 2.3999 14.0078 2.25251 13.765 2.152C13.398 2 12.932 2 12 2C11.068 2 10.602 2 10.235 2.152C9.99217 2.25251 9.77154 2.3999 9.58572 2.58572C9.39989 2.77155 9.25251 2.99218 9.15199 3.235C9.05999 3.458 9.02299 3.718 9.00899 4.098C9.00248 4.37193 8.9266 4.63973 8.78843 4.87635C8.65027 5.11298 8.45435 5.31069 8.21899 5.451C7.9798 5.58477 7.71058 5.65567 7.43652 5.65707C7.16247 5.65847 6.89254 5.59032 6.65199 5.459C6.31599 5.281 6.07199 5.183 5.83199 5.151C5.30631 5.08187 4.77469 5.22431 4.35399 5.547C4.03999 5.79 3.80599 6.193 3.33999 7C3.13199 7.36 2.97099 7.639 2.85099 7.873" stroke="#9AA2B0" stroke-width="1.5" stroke-linecap="round"/>
</svg>
