<svg width="48" height="48" viewBox="0 0 48 48" fill="none" xmlns="http://www.w3.org/2000/svg">
<rect x="0.25" y="0.25" width="47.5" height="47.5" rx="23.75" fill="#581C87" fill-opacity="0.5"/>
<rect x="0.25" y="0.25" width="47.5" height="47.5" rx="23.75" stroke="#A855F7" stroke-opacity="0.1" stroke-width="0.5"/>
<rect x="0.25" y="0.25" width="47.5" height="47.5" rx="23.75" stroke="url(#paint0_linear_1_264)" stroke-width="0.5"/>
<path d="M15.25 23.25C13.8438 23.25 12.75 22.1562 12.75 20.75C12.75 19.3828 13.8438 18.25 15.25 18.25C16.6172 18.25 17.75 19.3828 17.75 20.75C17.75 22.1562 16.6172 23.25 15.25 23.25ZM32.75 23.25C31.3438 23.25 30.25 22.1562 30.25 20.75C30.25 19.3828 31.3438 18.25 32.75 18.25C34.1172 18.25 35.25 19.3828 35.25 20.75C35.25 22.1562 34.1172 23.25 32.75 23.25ZM34 24.5C35.3672 24.5 36.5 25.6328 36.5 27V28.25C36.5 28.9531 35.9141 29.5 35.25 29.5H32.6719C32.3984 27.6641 31.3047 26.1016 29.7031 25.2422C30.1719 24.8125 30.7969 24.5 31.5 24.5H34ZM24 24.5C21.5781 24.5 19.625 22.5469 19.625 20.125C19.625 17.7422 21.5781 15.75 24 15.75C26.3828 15.75 28.375 17.7422 28.375 20.125C28.375 22.5469 26.3828 24.5 24 24.5ZM26.9688 25.75C29.4688 25.75 31.5 27.7812 31.5 30.2812V31.375C31.5 32.4297 30.6406 33.25 29.625 33.25H18.375C17.3203 33.25 16.5 32.4297 16.5 31.375V30.2812C16.5 27.7812 18.4922 25.75 20.9922 25.75H21.3047C22.125 26.1406 23.0234 26.375 24 26.375C24.9375 26.375 25.8359 26.1406 26.6562 25.75H26.9688ZM18.2578 25.2422C16.6562 26.1016 15.5625 27.6641 15.2891 29.5H12.75C12.0469 29.5 11.5 28.9531 11.5 28.25V27C11.5 25.6328 12.5938 24.5 14 24.5H16.5C17.1641 24.5 17.7891 24.8125 18.2578 25.2422Z" fill="#C084FC"/>
<defs>
<linearGradient id="paint0_linear_1_264" x1="24" y1="0" x2="24" y2="48" gradientUnits="userSpaceOnUse">
<stop stop-color="#914EF5" stop-opacity="0"/>
<stop offset="0.634615" stop-color="#914EF5"/>
<stop offset="0.971154" stop-color="#E5D3FF"/>
</linearGradient>
</defs>
</svg>
