<svg width="39" height="40" viewBox="0 0 39 40" fill="none" xmlns="http://www.w3.org/2000/svg">
<path d="M19.5 0.5C29.9915 0.5 38.5 9.04098 38.5 19.5811C38.4999 30.1211 29.9914 38.6621 19.5 38.6621C9.00858 38.6621 0.500055 30.1211 0.5 19.5811C0.5 9.04098 9.00854 0.5 19.5 0.5Z" stroke="#DCE8F3"/>
<path d="M30.5385 13.937C29.8119 14.257 29.0377 14.4691 28.2305 14.5721C29.0609 14.0743 29.6946 13.292 29.9926 12.349C29.2184 12.8125 28.3636 13.1399 27.4526 13.3226C26.7175 12.5366 25.6697 12.0498 24.5267 12.0498C22.3091 12.0498 20.5238 13.8573 20.5238 16.073C20.5238 16.3919 20.5506 16.6984 20.6166 16.9903C17.2865 16.8272 14.3399 15.2245 12.3604 12.7831C12.0148 13.3852 11.8121 14.0743 11.8121 14.8162C11.8121 16.2092 12.5264 17.444 13.5913 18.1588C12.9477 18.1466 12.3164 17.959 11.7815 17.6635V17.7076C11.7815 19.6622 13.17 21.2857 14.9907 21.6597C14.6647 21.7492 14.3093 21.7921 13.9405 21.7921C13.6841 21.7921 13.4252 21.7774 13.1822 21.7235C13.7012 23.3163 15.1739 24.4874 16.925 24.5254C15.5622 25.5959 13.8319 26.2409 11.9586 26.2409C11.6301 26.2409 11.3151 26.2262 11 26.1857C12.7743 27.3347 14.8772 27.9907 17.1448 27.9907C24.5157 27.9907 28.5455 21.8596 28.5455 16.5451C28.5455 16.3673 28.5394 16.1957 28.5309 16.0252C29.3259 15.4587 29.9938 14.7512 30.5385 13.937Z" fill="#DCE8F3"/>
</svg>
