<svg width="24" height="24" viewBox="0 0 24 24" fill="none" xmlns="http://www.w3.org/2000/svg">
<path d="M4 8L3.293 8.707L2.586 8L3.293 7.293L4 8ZM9 20C8.73478 20 8.48043 19.8946 8.29289 19.7071C8.10536 19.5196 8 19.2652 8 19C8 18.7348 8.10536 18.4804 8.29289 18.2929C8.48043 18.1054 8.73478 18 9 18V20ZM8.293 13.707L3.293 8.707L4.707 7.293L9.707 12.293L8.293 13.707ZM3.293 7.293L8.293 2.293L9.707 3.707L4.707 8.707L3.293 7.293ZM4 7H14.5V9H4V7ZM14.5 20H9V18H14.5V20ZM21 13.5C21 15.2239 20.3152 16.8772 19.0962 18.0962C17.8772 19.3152 16.2239 20 14.5 20V18C15.0909 18 15.6761 17.8836 16.2221 17.6575C16.768 17.4313 17.2641 17.0998 17.682 16.682C18.0998 16.2641 18.4313 15.768 18.6575 15.2221C18.8836 14.6761 19 14.0909 19 13.5H21ZM14.5 7C16.2239 7 17.8772 7.68482 19.0962 8.9038C20.3152 10.1228 21 11.7761 21 13.5H19C19 12.9091 18.8836 12.3239 18.6575 11.7779C18.4313 11.232 18.0998 10.7359 17.682 10.318C17.2641 9.90016 16.768 9.56869 16.2221 9.34254C15.6761 9.11639 15.0909 9 14.5 9V7Z" fill="#9AA2B0"/>
</svg>
