<svg width="29" height="17" viewBox="0 0 29 17" fill="none" xmlns="http://www.w3.org/2000/svg">
<g clip-path="url(#clip0_12_4)">
<path d="M12.1265 3.13677C12.0007 3.17582 11.8932 3.24197 11.8175 3.32685C11.7419 3.41173 11.7015 3.51154 11.7014 3.61364L11.7014 7.74351L3.4417 7.74351C3.25915 7.74351 3.08407 7.79789 2.95499 7.89471C2.8259 7.99152 2.75339 8.12283 2.75339 8.25974C2.75339 8.39665 2.8259 8.52796 2.95499 8.62477C3.08407 8.72159 3.25915 8.77597 3.4417 8.77597L11.7014 8.77597L11.7014 12.9058C11.7013 13.008 11.7416 13.1079 11.8173 13.1929C11.8929 13.2778 12.0004 13.3441 12.1263 13.3832C12.2521 13.4223 12.3906 13.4325 12.5242 13.4125C12.6578 13.3926 12.7805 13.3434 12.8767 13.2711L19.0715 8.62498C19.1355 8.57703 19.1863 8.5201 19.2209 8.45743C19.2556 8.39476 19.2734 8.32758 19.2734 8.25974C19.2734 8.1919 19.2556 8.12472 19.2209 8.06205C19.1863 7.99938 19.1355 7.94245 19.0715 7.89451L12.8767 3.2484C12.7804 3.17623 12.6577 3.1271 12.5242 3.10723C12.3906 3.08736 12.2522 3.09764 12.1265 3.13677Z" fill="#7D7D7D"/>
</g>
<circle cx="25.8115" cy="8.60387" r="3.0974" fill="#7D7D7D"/>
<defs>
<clipPath id="clip0_12_4">
<rect width="16.5195" height="22.026" fill="white" transform="matrix(4.37114e-08 -1 -1 -4.37114e-08 22.026 16.5195)"/>
</clipPath>
</defs>
</svg>
