<svg width="27" height="11" viewBox="0 0 27 11" fill="none" xmlns="http://www.w3.org/2000/svg">
<path d="M16.7826 0.039415C16.9084 0.078468 17.0159 0.144619 17.0916 0.229501C17.1672 0.314383 17.2076 0.414184 17.2077 0.516286L17.2077 4.64616L25.4674 4.64616C25.65 4.64616 25.825 4.70054 25.9541 4.79736C26.0832 4.89417 26.1557 5.02548 26.1557 5.16239C26.1557 5.2993 26.0832 5.43061 25.9541 5.52742C25.825 5.62423 25.65 5.67862 25.4674 5.67862L17.2077 5.67862L17.2077 9.80849C17.2078 9.91065 17.1675 10.0105 17.0918 10.0955C17.0162 10.1805 16.9087 10.2467 16.7828 10.2858C16.657 10.3249 16.5185 10.3351 16.3849 10.3152C16.2513 10.2952 16.1286 10.246 16.0324 10.1737L9.83757 5.52763C9.77357 5.47968 9.7228 5.42275 9.68816 5.36008C9.65352 5.29741 9.63569 5.23023 9.63569 5.16239C9.63569 5.09455 9.65352 5.02737 9.68816 4.9647C9.7228 4.90203 9.77357 4.8451 9.83757 4.79715L16.0324 0.151049C16.1287 0.0788772 16.2514 0.0297477 16.3849 0.00987596C16.5185 -0.00999481 16.6569 0.000284842 16.7826 0.039415Z" fill="#7D7D7D"/>
<circle cx="3.0974" cy="3.0974" r="3.0974" transform="matrix(-1 0 0 1 6.19496 2.40912)" fill="#7D7D7D"/>
</svg>
