<svg width="16" height="16" viewBox="0 0 16 16" fill="none" xmlns="http://www.w3.org/2000/svg">
<path d="M8 14C11.3137 14 14 11.3137 14 8C14 4.68629 11.3137 2 8 2C4.68629 2 2 4.68629 2 8C2 11.3137 4.68629 14 8 14Z" stroke="#7D7D7D" stroke-width="1.2" stroke-linecap="round" stroke-linejoin="round"/>
<path d="M7.5 7.5C7.63261 7.5 7.75979 7.55268 7.85355 7.64645C7.94732 7.74021 8 7.86739 8 8V10.5C8 10.6326 8.05268 10.7598 8.14645 10.8536C8.24021 10.9473 8.36739 11 8.5 11" fill="#7D7D7D"/>
<path d="M7.5 7.5C7.63261 7.5 7.75979 7.55268 7.85355 7.64645C7.94732 7.74021 8 7.86739 8 8V10.5C8 10.6326 8.05268 10.7598 8.14645 10.8536C8.24021 10.9473 8.36739 11 8.5 11" stroke="#7D7D7D" stroke-linecap="round" stroke-linejoin="round"/>
<path d="M7.75 4.5625C8.1297 4.5625 8.4375 4.8703 8.4375 5.25C8.4375 5.6297 8.1297 5.9375 7.75 5.9375C7.3703 5.9375 7.0625 5.6297 7.0625 5.25C7.0625 4.8703 7.3703 4.5625 7.75 4.5625Z" fill="#7D7D7D" stroke="#7D7D7D" stroke-width="0.125"/>
</svg>
