<svg width="32" height="32" viewBox="0 0 32 32" fill="none" xmlns="http://www.w3.org/2000/svg">
<g clip-path="url(#clip0_1_27)">
<path opacity="0.2" d="M20.2938 17.2938C20.1783 17.1786 20.0928 17.0369 20.0446 16.8811C19.9965 16.7253 19.9872 16.5601 20.0175 16.3999C20.0478 16.2396 20.1168 16.0893 20.2186 15.9618C20.3203 15.8344 20.4517 15.7338 20.6013 15.6688L26.4025 13.4413C26.5848 13.3585 26.738 13.2229 26.8424 13.052C26.9467 12.8812 26.9974 12.683 26.9878 12.483C26.9783 12.2831 26.9089 12.0906 26.7887 11.9305C26.6686 11.7704 26.5031 11.65 26.3138 11.585L6.30502 5.05125C6.13128 4.99775 5.94623 4.99263 5.76979 5.03644C5.59335 5.08024 5.43219 5.17132 5.30364 5.29987C5.17509 5.42842 5.08401 5.58958 5.04021 5.76602C4.9964 5.94246 5.00152 6.12751 5.05502 6.30125L11.585 26.3138C11.65 26.5031 11.7704 26.6685 11.9305 26.7887C12.0906 26.9089 12.2831 26.9782 12.483 26.9878C12.683 26.9974 12.8812 26.9467 13.0521 26.8423C13.2229 26.738 13.3585 26.5848 13.4413 26.4025L15.6688 20.6013C15.7338 20.4517 15.8344 20.3203 15.9618 20.2186C16.0893 20.1168 16.2397 20.0478 16.3999 20.0175C16.5601 19.9871 16.7253 19.9965 16.8811 20.0446C17.0369 20.0928 17.1786 20.1783 17.2938 20.2938L23.7075 26.7075C23.895 26.8949 24.1493 27.0002 24.4144 27.0002C24.6795 27.0002 24.9338 26.8949 25.1213 26.7075L26.7075 25.125C26.8949 24.9375 27.0002 24.6832 27.0002 24.4181C27.0002 24.153 26.8949 23.8988 26.7075 23.7113L20.2938 17.2938Z" fill="white"/>
<path d="M20.2938 17.2938C20.1783 17.1786 20.0928 17.0369 20.0446 16.8811C19.9965 16.7253 19.9872 16.5601 20.0175 16.3999C20.0478 16.2396 20.1168 16.0893 20.2186 15.9618C20.3203 15.8344 20.4517 15.7338 20.6013 15.6688L26.4025 13.4413C26.5848 13.3585 26.738 13.2229 26.8424 13.052C26.9467 12.8812 26.9974 12.683 26.9878 12.483C26.9783 12.2831 26.9089 12.0906 26.7887 11.9305C26.6686 11.7704 26.5031 11.65 26.3138 11.585L6.30502 5.05125C6.13128 4.99775 5.94623 4.99263 5.76979 5.03644C5.59335 5.08024 5.43219 5.17132 5.30364 5.29987C5.17509 5.42842 5.08401 5.58958 5.04021 5.76602C4.9964 5.94246 5.00152 6.12751 5.05502 6.30125L11.585 26.3138C11.65 26.5031 11.7704 26.6685 11.9305 26.7887C12.0906 26.9089 12.2831 26.9782 12.483 26.9878C12.683 26.9974 12.8812 26.9467 13.0521 26.8423C13.2229 26.738 13.3585 26.5848 13.4413 26.4025L15.6688 20.6013C15.7338 20.4517 15.8344 20.3203 15.9618 20.2186C16.0893 20.1168 16.2397 20.0478 16.3999 20.0175C16.5601 19.9871 16.7253 19.9965 16.8811 20.0446C17.0369 20.0928 17.1786 20.1783 17.2938 20.2938L23.7075 26.7075C23.895 26.8949 24.1493 27.0002 24.4144 27.0002C24.6795 27.0002 24.9338 26.8949 25.1213 26.7075L26.7075 25.125C26.8949 24.9375 27.0002 24.6832 27.0002 24.4181C27.0002 24.153 26.8949 23.8988 26.7075 23.7113L20.2938 17.2938Z" stroke="#7D7D7D" stroke-width="2" stroke-linecap="round" stroke-linejoin="round"/>
</g>
<defs>
<clipPath id="clip0_1_27">
<rect width="32" height="32" fill="white"/>
</clipPath>
</defs>
</svg>
