<svg width="36" height="44" viewBox="0 0 36 44" fill="none" xmlns="http://www.w3.org/2000/svg">
<path d="M1.17544 9.03414L17.7042 3.23503L34.233 9.03414V17.8967H35.4033V6.35563L17.7042 0L0.00521716 6.35563V17.8967H1.17544V9.03414ZM35.4085 25.6514V19.1293H34.2382V26.4887H31.6637C28.3195 35.1016 17.7042 39.0023 17.7042 39.0023C17.7042 39.0023 7.09419 35.1016 3.74474 26.4887H1.17024V19.1293H1.60386e-05V25.6514C1.60386e-05 25.6514 -0.109207 36.5215 17.699 43.2099C35.5177 36.5215 35.4085 25.6514 35.4085 25.6514Z" fill="url(#paint0_linear_30_262)"/>
<path d="M15.2597 34.9196L16.9397 33.3332V27.1389H17.3869V33.5257L15.5666 35.242L15.2597 34.9196Z" fill="url(#paint1_linear_30_262)"/>
<path d="M10.7608 32.2411V31.799H15.6133V26.7228H16.0606V32.2411H10.7608Z" fill="url(#paint2_linear_30_262)"/>
<path d="M8.22278 28.8188H12.3836V25.3965H12.8309V29.2661H8.22278V28.8188Z" fill="url(#paint3_linear_30_262)"/>
<path d="M18.0995 33.5257V27.1389H18.5416V33.328L20.2267 34.8779L19.925 35.2056L18.0995 33.5257Z" fill="url(#paint4_linear_30_262)"/>
<path d="M19.4206 32.2411V26.7228H19.8679V31.799H24.6372V32.2411H19.4206Z" fill="url(#paint5_linear_30_262)"/>
<path d="M22.6505 29.2661V25.3965H23.0978V28.8188H27.1753V29.2661H22.6505Z" fill="url(#paint6_linear_30_262)"/>
<path d="M6.50641 29.0685C6.50641 28.5328 6.93809 28.1011 7.47379 28.1011C8.0095 28.1011 8.44118 28.5328 8.44118 29.0685C8.44118 29.6042 8.0095 30.0358 7.47379 30.0358C6.94329 30.0358 6.50641 29.6042 6.50641 29.0685ZM6.95369 29.0685C6.95369 29.3545 7.18774 29.5886 7.47379 29.5886C7.75985 29.5886 7.99389 29.3545 7.99389 29.0685C7.99389 28.7824 7.75985 28.5484 7.47379 28.5484C7.18774 28.5484 6.95369 28.7824 6.95369 29.0685Z" fill="url(#paint7_linear_30_262)"/>
<path d="M9.04964 31.9914C9.04964 31.4557 9.48132 31.024 10.017 31.024C10.5527 31.024 10.9844 31.4557 10.9844 31.9914C10.9844 32.5271 10.5527 32.9588 10.017 32.9588C9.48132 32.9588 9.04964 32.5271 9.04964 31.9914ZM9.49172 31.9914C9.49172 32.2775 9.72577 32.5115 10.0118 32.5115C10.2979 32.5115 10.5319 32.2775 10.5319 31.9914C10.5319 31.7053 10.2979 31.4713 10.0118 31.4713C9.72577 31.4713 9.49172 31.7053 9.49172 31.9914Z" fill="url(#paint8_linear_30_262)"/>
<path d="M13.8762 35.5801C13.8762 35.0444 14.3079 34.6127 14.8436 34.6127C15.3793 34.6127 15.811 35.0444 15.811 35.5801C15.811 36.1158 15.3793 36.5475 14.8436 36.5475C14.3079 36.5475 13.8762 36.1158 13.8762 35.5801ZM14.3235 35.5801C14.3235 35.8662 14.5576 36.1002 14.8436 36.1002C15.1297 36.1002 15.3637 35.8662 15.3637 35.5801C15.3637 35.2941 15.1297 35.06 14.8436 35.06C14.5576 35.06 14.3235 35.2941 14.3235 35.5801Z" fill="url(#paint9_linear_30_262)"/>
<path d="M26.9566 29.0684C26.9566 28.5327 27.3883 28.101 27.924 28.101C28.4597 28.101 28.8914 28.5327 28.8914 29.0684C28.8914 29.6041 28.4597 30.0358 27.924 30.0358C27.3883 30.0358 26.9566 29.6041 26.9566 29.0684ZM27.924 29.5885C28.2101 29.5885 28.4441 29.3545 28.4441 29.0684C28.4441 28.7824 28.2101 28.5483 27.924 28.5483C27.638 28.5483 27.4039 28.7824 27.4039 29.0684C27.3987 29.3545 27.6328 29.5885 27.924 29.5885Z" fill="url(#paint10_linear_30_262)"/>
<path d="M24.4133 31.9914C24.4133 31.4557 24.845 31.024 25.3807 31.024C25.9164 31.024 26.3481 31.4557 26.3481 31.9914C26.3481 32.5271 25.9164 32.9588 25.3807 32.9588C24.8502 32.9588 24.4133 32.5271 24.4133 31.9914ZM25.3859 32.5167C25.672 32.5167 25.906 32.2827 25.906 31.9966C25.906 31.7106 25.672 31.4765 25.3859 31.4765C25.0999 31.4765 24.8658 31.7106 24.8658 31.9966C24.8606 32.2827 25.0947 32.5167 25.3859 32.5167Z" fill="url(#paint11_linear_30_262)"/>
<path d="M19.5869 35.5801C19.5869 35.0444 20.0186 34.6127 20.5543 34.6127C21.09 34.6127 21.5217 35.0444 21.5217 35.5801C21.5217 36.1158 21.09 36.5475 20.5543 36.5475C20.0186 36.5475 19.5869 36.1158 19.5869 35.5801ZM20.5543 36.1002C20.8404 36.1002 21.0744 35.8662 21.0744 35.5801C21.0744 35.2941 20.8404 35.06 20.5543 35.06C20.2683 35.06 20.0342 35.2941 20.0342 35.5801C20.0342 35.8662 20.2683 36.1002 20.5543 36.1002Z" fill="url(#paint12_linear_30_262)"/>
<path d="M16.9398 10.5685V8.51405L15.2598 6.92775L15.5667 6.60529L17.3871 8.32162V10.5685H16.9398Z" fill="url(#paint13_linear_30_262)"/>
<path d="M15.6136 10.9845V10.0484H10.7611V9.60107H16.0609V10.9845H15.6136Z" fill="url(#paint14_linear_30_262)"/>
<path d="M18.0996 10.5684V8.31637L19.9251 6.63644L20.2268 6.96411L18.5417 8.51401V10.5684H18.0996Z" fill="url(#paint15_linear_30_262)"/>
<path d="M19.4207 10.9845V9.60107H24.6373V10.0484H19.868V10.9845H19.4207Z" fill="url(#paint16_linear_30_262)"/>
<path d="M9.04984 9.85072C9.04984 9.31501 9.48152 8.88333 10.0172 8.88333C10.5529 8.88333 10.9846 9.31501 10.9846 9.85072C10.9846 10.3864 10.5529 10.8181 10.0172 10.8181C9.48152 10.8181 9.04984 10.3864 9.04984 9.85072ZM9.49192 9.85072C9.49192 10.1368 9.72597 10.3708 10.012 10.3708C10.2981 10.3708 10.5321 10.1368 10.5321 9.85072C10.5321 9.56466 10.2981 9.33062 10.012 9.33062C9.72597 9.33062 9.49192 9.56466 9.49192 9.85072Z" fill="url(#paint17_linear_30_262)"/>
<path d="M13.8764 6.262C13.8764 5.7263 14.3081 5.29462 14.8438 5.29462C15.3795 5.29462 15.8112 5.7263 15.8112 6.262C15.8112 6.79771 15.3795 7.22939 14.8438 7.22939C14.3081 7.22939 13.8764 6.79771 13.8764 6.262ZM14.3237 6.262C14.3237 6.54806 14.5578 6.7821 14.8438 6.7821C15.1299 6.7821 15.3639 6.54806 15.3639 6.262C15.3639 5.97595 15.1299 5.7419 14.8438 5.7419C14.5578 5.7419 14.3237 5.97595 14.3237 6.262Z" fill="url(#paint18_linear_30_262)"/>
<path d="M24.4136 9.85072C24.4136 9.31501 24.8453 8.88333 25.381 8.88333C25.9167 8.88333 26.3484 9.31501 26.3484 9.85072C26.3484 10.3864 25.9167 10.8181 25.381 10.8181C24.8505 10.8181 24.4136 10.3864 24.4136 9.85072ZM24.8609 9.85072C24.8609 10.1368 25.095 10.3708 25.381 10.3708C25.6671 10.3708 25.9011 10.1368 25.9011 9.85072C25.9011 9.56466 25.6671 9.33062 25.381 9.33062C25.095 9.33062 24.8609 9.56466 24.8609 9.85072Z" fill="url(#paint19_linear_30_262)"/>
<path d="M19.5871 6.262C19.5871 5.7263 20.0188 5.29462 20.5545 5.29462C21.0902 5.29462 21.5219 5.7263 21.5219 6.262C21.5219 6.79771 21.0902 7.22939 20.5545 7.22939C20.0188 7.22939 19.5871 6.79771 19.5871 6.262ZM20.0344 6.262C20.0344 6.54806 20.2684 6.7821 20.5545 6.7821C20.8406 6.7821 21.0746 6.54806 21.0746 6.262C21.0746 5.97595 20.8406 5.7419 20.5545 5.7419C20.2684 5.7419 20.0344 5.97595 20.0344 6.262Z" fill="url(#paint20_linear_30_262)"/>
<path d="M17.2414 13.4758C14.7345 13.6682 12.7425 15.6862 12.5865 18.2035H14.7917C14.9321 16.9032 15.9463 15.863 17.2414 15.6862V13.4758Z" fill="url(#paint21_radial_30_262)"/>
<path d="M18.0683 13.4758V15.6914C19.3322 15.889 20.3256 16.9136 20.466 18.1983H22.6712C22.5152 15.7018 20.5492 13.689 18.0683 13.4758Z" fill="url(#paint22_linear_30_262)"/>
<path d="M17.2415 21.3345C16.0349 21.1733 15.0727 20.2579 14.8334 19.0773H12.6126C12.8778 21.475 14.823 23.3629 17.2415 23.545V21.3345Z" fill="url(#paint23_linear_30_262)"/>
<path d="M20.4244 19.0773C20.1903 20.2371 19.249 21.1473 18.0683 21.3293V23.545C20.466 23.3369 22.38 21.4594 22.6504 19.0825H20.4244V19.0773Z" fill="url(#paint24_radial_30_262)"/>
<path d="M17.5795 9.49186C17.5795 9.49186 9.69476 8.6649 2.74101 17.9435H11.1146C11.4007 14.594 14.2092 11.9675 17.6315 11.9675C19.6547 11.9675 21.4646 12.8881 22.6661 14.3288C23.4202 15.0933 26.3536 17.8395 29.6666 17.9435H32.678C32.6728 17.9435 26.6968 9.54387 17.5795 9.49186Z" fill="url(#paint25_linear_30_262)"/>
<path d="M17.8344 27.5081C17.8344 27.5081 25.7191 28.3351 32.6729 19.0565H24.2993C24.0132 22.4059 21.2047 25.0324 17.7824 25.0324C15.7592 25.0324 13.9493 24.1118 12.7478 22.6712C11.9937 21.9066 9.06032 19.1605 5.74728 19.0565H2.7359C2.7359 19.0565 8.71186 27.4561 17.8344 27.5081Z" fill="url(#paint26_linear_30_262)"/>
<path d="M18.4638 18.7808C18.3338 18.7808 18.2297 18.6768 18.2297 18.5468C18.2297 18.4167 18.3338 18.3127 18.4638 18.3127H19.712C19.6236 17.3297 18.8539 16.5444 17.8813 16.4248V17.7302C17.8813 17.8602 17.7772 17.9643 17.6472 17.9643C17.5172 17.9643 17.4132 17.8602 17.4132 17.7302V16.4196C16.4146 16.5184 15.624 17.3141 15.5356 18.3127H16.8359C16.9659 18.3127 17.0699 18.4167 17.0699 18.5468C17.0699 18.6768 16.9659 18.7808 16.8359 18.7808H15.546C15.6708 19.743 16.4458 20.5023 17.4184 20.596V19.3581C17.4184 19.2281 17.5224 19.1241 17.6524 19.1241C17.7824 19.1241 17.8865 19.2281 17.8865 19.3581V20.5856C18.8331 20.4711 19.582 19.7222 19.7068 18.7756H18.4638V18.7808Z" fill="url(#paint27_linear_30_262)"/>
<defs>
<linearGradient id="paint0_linear_30_262" x1="17.7057" y1="2.286" x2="17.7057" y2="39.7497" gradientUnits="userSpaceOnUse">
<stop stop-color="#4CBCFB"/>
<stop offset="1" stop-color="#914EF5"/>
</linearGradient>
<linearGradient id="paint1_linear_30_262" x1="16.3231" y1="2.28628" x2="16.3231" y2="39.7495" gradientUnits="userSpaceOnUse">
<stop stop-color="#4CBCFB"/>
<stop offset="1" stop-color="#914EF5"/>
</linearGradient>
<linearGradient id="paint2_linear_30_262" x1="13.4102" y1="2.28937" x2="13.4102" y2="39.7487" gradientUnits="userSpaceOnUse">
<stop stop-color="#4CBCFB"/>
<stop offset="1" stop-color="#914EF5"/>
</linearGradient>
<linearGradient id="paint3_linear_30_262" x1="10.5269" y1="2.28426" x2="10.5269" y2="39.7507" gradientUnits="userSpaceOnUse">
<stop stop-color="#4CBCFB"/>
<stop offset="1" stop-color="#914EF5"/>
</linearGradient>
<linearGradient id="paint4_linear_30_262" x1="19.1631" y1="2.28602" x2="19.1631" y2="39.7499" gradientUnits="userSpaceOnUse">
<stop stop-color="#4CBCFB"/>
<stop offset="1" stop-color="#914EF5"/>
</linearGradient>
<linearGradient id="paint5_linear_30_262" x1="22.0301" y1="2.28984" x2="22.0301" y2="39.7484" gradientUnits="userSpaceOnUse">
<stop stop-color="#4CBCFB"/>
<stop offset="1" stop-color="#914EF5"/>
</linearGradient>
<linearGradient id="paint6_linear_30_262" x1="24.9135" y1="2.28452" x2="24.9135" y2="39.751" gradientUnits="userSpaceOnUse">
<stop stop-color="#4CBCFB"/>
<stop offset="1" stop-color="#914EF5"/>
</linearGradient>
<linearGradient id="paint7_linear_30_262" x1="7.47681" y1="2.28551" x2="7.47681" y2="39.7503" gradientUnits="userSpaceOnUse">
<stop stop-color="#4CBCFB"/>
<stop offset="1" stop-color="#914EF5"/>
</linearGradient>
<linearGradient id="paint8_linear_30_262" x1="10.0153" y1="2.28372" x2="10.0153" y2="39.7507" gradientUnits="userSpaceOnUse">
<stop stop-color="#4CBCFB"/>
<stop offset="1" stop-color="#914EF5"/>
</linearGradient>
<linearGradient id="paint9_linear_30_262" x1="14.8436" y1="2.29315" x2="14.8436" y2="39.7491" gradientUnits="userSpaceOnUse">
<stop stop-color="#4CBCFB"/>
<stop offset="1" stop-color="#914EF5"/>
</linearGradient>
<linearGradient id="paint10_linear_30_262" x1="27.9219" y1="2.28548" x2="27.9219" y2="39.7503" gradientUnits="userSpaceOnUse">
<stop stop-color="#4CBCFB"/>
<stop offset="1" stop-color="#914EF5"/>
</linearGradient>
<linearGradient id="paint11_linear_30_262" x1="25.3833" y1="2.28372" x2="25.3833" y2="39.7507" gradientUnits="userSpaceOnUse">
<stop stop-color="#4CBCFB"/>
<stop offset="1" stop-color="#914EF5"/>
</linearGradient>
<linearGradient id="paint12_linear_30_262" x1="20.555" y1="2.29315" x2="20.555" y2="39.7491" gradientUnits="userSpaceOnUse">
<stop stop-color="#4CBCFB"/>
<stop offset="1" stop-color="#914EF5"/>
</linearGradient>
<linearGradient id="paint13_linear_30_262" x1="16.3232" y1="2.28627" x2="16.3232" y2="39.7483" gradientUnits="userSpaceOnUse">
<stop stop-color="#4CBCFB"/>
<stop offset="1" stop-color="#914EF5"/>
</linearGradient>
<linearGradient id="paint14_linear_30_262" x1="13.4105" y1="2.28477" x2="13.4105" y2="39.7541" gradientUnits="userSpaceOnUse">
<stop stop-color="#4CBCFB"/>
<stop offset="1" stop-color="#914EF5"/>
</linearGradient>
<linearGradient id="paint15_linear_30_262" x1="19.1632" y1="2.28648" x2="19.1632" y2="39.7475" gradientUnits="userSpaceOnUse">
<stop stop-color="#4CBCFB"/>
<stop offset="1" stop-color="#914EF5"/>
</linearGradient>
<linearGradient id="paint16_linear_30_262" x1="22.0302" y1="2.28477" x2="22.0302" y2="39.7541" gradientUnits="userSpaceOnUse">
<stop stop-color="#4CBCFB"/>
<stop offset="1" stop-color="#914EF5"/>
</linearGradient>
<linearGradient id="paint17_linear_30_262" x1="10.0155" y1="2.28602" x2="10.0155" y2="39.7501" gradientUnits="userSpaceOnUse">
<stop stop-color="#4CBCFB"/>
<stop offset="1" stop-color="#914EF5"/>
</linearGradient>
<linearGradient id="paint18_linear_30_262" x1="14.8438" y1="2.28599" x2="14.8438" y2="39.7518" gradientUnits="userSpaceOnUse">
<stop stop-color="#4CBCFB"/>
<stop offset="1" stop-color="#914EF5"/>
</linearGradient>
<linearGradient id="paint19_linear_30_262" x1="25.3839" y1="2.28602" x2="25.3839" y2="39.7501" gradientUnits="userSpaceOnUse">
<stop stop-color="#4CBCFB"/>
<stop offset="1" stop-color="#914EF5"/>
</linearGradient>
<linearGradient id="paint20_linear_30_262" x1="20.5552" y1="2.28599" x2="20.5552" y2="39.7518" gradientUnits="userSpaceOnUse">
<stop stop-color="#4CBCFB"/>
<stop offset="1" stop-color="#914EF5"/>
</linearGradient>
<radialGradient id="paint21_radial_30_262" cx="0" cy="0" r="1" gradientUnits="userSpaceOnUse" gradientTransform="translate(9.39857 30.6076) scale(21.2093 21.2093)">
<stop stop-color="#4CBCFB"/>
<stop offset="1" stop-color="#914EF5"/>
</radialGradient>
<linearGradient id="paint22_linear_30_262" x1="21.2466" y1="16.891" x2="38.4797" y2="30.949" gradientUnits="userSpaceOnUse">
<stop stop-color="#4CBCFB"/>
<stop offset="1" stop-color="#914EF5"/>
</linearGradient>
<linearGradient id="paint23_linear_30_262" x1="16.7159" y1="22.445" x2="33.9488" y2="36.5029" gradientUnits="userSpaceOnUse">
<stop stop-color="#4CBCFB"/>
<stop offset="1" stop-color="#914EF5"/>
</linearGradient>
<radialGradient id="paint24_radial_30_262" cx="0" cy="0" r="1" gradientUnits="userSpaceOnUse" gradientTransform="translate(9.39935 30.6066) scale(21.2072 21.2072)">
<stop stop-color="#4CBCFB"/>
<stop offset="1" stop-color="#914EF5"/>
</radialGradient>
<linearGradient id="paint25_linear_30_262" x1="17.7058" y1="2.28628" x2="17.7058" y2="39.7493" gradientUnits="userSpaceOnUse">
<stop stop-color="#4CBCFB"/>
<stop offset="1" stop-color="#914EF5"/>
</linearGradient>
<linearGradient id="paint26_linear_30_262" x1="17.7058" y1="2.28519" x2="17.7058" y2="39.7505" gradientUnits="userSpaceOnUse">
<stop stop-color="#4CBCFB"/>
<stop offset="1" stop-color="#914EF5"/>
</linearGradient>
<linearGradient id="paint27_linear_30_262" x1="17.9258" y1="18.7177" x2="29.2427" y2="26.6897" gradientUnits="userSpaceOnUse">
<stop stop-color="#4CBCFB"/>
<stop offset="1" stop-color="#914EF5"/>
</linearGradient>
</defs>
</svg>
